<svg width="505" height="244" viewBox="0 0 505 244" fill="none" xmlns="http://www.w3.org/2000/svg">
<rect width="505" height="244" fill="white"/>
<g filter="url(#filter0_d_401_5)">
<path d="M99.5 10H50L9 154.5H63H106V229.5H151V110.5V10H106V110.5H63L99.5 10Z" fill="url(#paint0_linear_401_5)"/>
<path d="M99.5 10H50L9 154.5H63H106V229.5H151V110.5V10H106V110.5H63L99.5 10Z" stroke="#316C75"/>
</g>
<g filter="url(#filter1_d_401_5)">
<path d="M426.5 10H377L336 154.5H390H433V229.5H478V110.5V10H433V110.5H390L426.5 10Z" fill="url(#paint1_linear_401_5)"/>
<path d="M426.5 10H377L336 154.5H390H433V229.5H478V110.5V10H433V110.5H390L426.5 10Z" stroke="#316C75"/>
</g>
<g filter="url(#filter2_d_401_5)">
<path d="M199.847 212.014C212.247 202.414 220.347 202.348 222.847 203.514C240.447 210.314 247.18 226.848 237.347 230.014H199.847C194.68 228.014 187.447 221.614 199.847 212.014Z" fill="#C08827"/>
</g>
<g filter="url(#filter3_d_401_5)">
<path d="M314.558 212.01C302.89 202.415 295.268 202.348 292.915 203.514C276.354 210.31 270.018 226.835 279.271 230H314.558C319.419 228.001 326.225 221.604 314.558 212.01Z" fill="#C08827"/>
</g>
<g filter="url(#filter4_d_401_5)">
<ellipse cx="251" cy="118" rx="77" ry="112" fill="url(#paint2_linear_401_5)"/>
<path d="M327.5 118C327.5 148.84 318.905 176.738 305.035 196.913C291.164 217.089 272.051 229.5 251 229.5C229.949 229.5 210.836 217.089 196.965 196.913C183.095 176.738 174.5 148.84 174.5 118C174.5 87.1602 183.095 59.2618 196.965 39.0873C210.836 18.9106 229.949 6.5 251 6.5C272.051 6.5 291.164 18.9106 305.035 39.0873C318.905 59.2618 327.5 87.1602 327.5 118Z" stroke="#D9D9D9"/>
</g>
<g filter="url(#filter5_i_401_5)">
<ellipse cx="250.5" cy="113.5" rx="52.5" ry="28.5" fill="white"/>
</g>
<path d="M302.5 113.5C302.5 121.1 296.818 128.092 287.385 133.213C277.97 138.324 264.931 141.5 250.5 141.5C236.069 141.5 223.03 138.324 213.615 133.213C204.182 128.092 198.5 121.1 198.5 113.5C198.5 105.9 204.182 98.908 213.615 93.7869C223.03 88.6763 236.069 85.5 250.5 85.5C264.931 85.5 277.97 88.6763 287.385 93.7869C296.818 98.908 302.5 105.9 302.5 113.5Z" stroke="url(#paint3_linear_401_5)" stroke-opacity="0.89"/>
<g filter="url(#filter6_d_401_5)">
<ellipse cx="251" cy="113.5" rx="16" ry="21.5" fill="black" fill-opacity="0.87" shape-rendering="crispEdges"/>
</g>
<g filter="url(#filter7_d_401_5)">
<path d="M221.5 27.4737C218 27.4737 224.947 22.4209 212.013 27.4737C207.27 29.3263 204.091 25.1493 224.5 13.8313C250.011 -0.316207 269.395 10.2945 277.245 13.8313C283.524 16.6608 294 24.5 292 24.5L291.52 25.0715C290.28 26.5455 288.319 27.1994 286.443 26.7639L284.486 26.3095C282.245 25.7891 279.89 26.1337 277.892 27.2744C276.453 28.0959 274.655 27.9402 273.379 26.8834L272.925 26.5077C271.557 25.3748 269.547 25.4865 268.312 26.7639C267.19 27.9252 265.535 28.4018 263.968 28.015L261.183 27.3281C259.447 26.8997 257.616 27.0784 255.995 27.8345C253.737 28.8877 251.181 29.1145 248.772 28.4752L247.74 28.201C245.961 27.7287 244.077 27.8413 242.367 28.5224L240 29.4647H237.919C235.683 29.4647 233.49 28.8488 231.581 27.6844C229.303 26.2947 226.54 25.9434 223.986 26.7188L221.5 27.4737Z" fill="black"/>
</g>
<defs>
<filter id="filter0_d_401_5" x="4.33838" y="9.5" width="151.162" height="228.5" filterUnits="userSpaceOnUse" color-interpolation-filters="sRGB">
<feFlood flood-opacity="0" result="BackgroundImageFix"/>
<feColorMatrix in="SourceAlpha" type="matrix" values="0 0 0 0 0 0 0 0 0 0 0 0 0 0 0 0 0 0 127 0" result="hardAlpha"/>
<feOffset dy="4"/>
<feGaussianBlur stdDeviation="2"/>
<feComposite in2="hardAlpha" operator="out"/>
<feColorMatrix type="matrix" values="0 0 0 0 0 0 0 0 0 0 0 0 0 0 0 0 0 0 0.25 0"/>
<feBlend mode="normal" in2="BackgroundImageFix" result="effect1_dropShadow_401_5"/>
<feBlend mode="normal" in="SourceGraphic" in2="effect1_dropShadow_401_5" result="shape"/>
</filter>
<filter id="filter1_d_401_5" x="331.338" y="9.5" width="151.162" height="228.5" filterUnits="userSpaceOnUse" color-interpolation-filters="sRGB">
<feFlood flood-opacity="0" result="BackgroundImageFix"/>
<feColorMatrix in="SourceAlpha" type="matrix" values="0 0 0 0 0 0 0 0 0 0 0 0 0 0 0 0 0 0 127 0" result="hardAlpha"/>
<feOffset dy="4"/>
<feGaussianBlur stdDeviation="2"/>
<feComposite in2="hardAlpha" operator="out"/>
<feColorMatrix type="matrix" values="0 0 0 0 0 0 0 0 0 0 0 0 0 0 0 0 0 0 0.25 0"/>
<feBlend mode="normal" in2="BackgroundImageFix" result="effect1_dropShadow_401_5"/>
<feBlend mode="normal" in="SourceGraphic" in2="effect1_dropShadow_401_5" result="shape"/>
</filter>
<filter id="filter2_d_401_5" x="189" y="203" width="56.886" height="35.0143" filterUnits="userSpaceOnUse" color-interpolation-filters="sRGB">
<feFlood flood-opacity="0" result="BackgroundImageFix"/>
<feColorMatrix in="SourceAlpha" type="matrix" values="0 0 0 0 0 0 0 0 0 0 0 0 0 0 0 0 0 0 127 0" result="hardAlpha"/>
<feOffset dy="4"/>
<feGaussianBlur stdDeviation="2"/>
<feComposite in2="hardAlpha" operator="out"/>
<feColorMatrix type="matrix" values="0 0 0 0 0 0 0 0 0 0 0 0 0 0 0 0 0 0 0.25 0"/>
<feBlend mode="normal" in2="BackgroundImageFix" result="effect1_dropShadow_401_5"/>
<feBlend mode="normal" in="SourceGraphic" in2="effect1_dropShadow_401_5" result="shape"/>
</filter>
<filter id="filter3_d_401_5" x="271" y="203" width="54" height="35" filterUnits="userSpaceOnUse" color-interpolation-filters="sRGB">
<feFlood flood-opacity="0" result="BackgroundImageFix"/>
<feColorMatrix in="SourceAlpha" type="matrix" values="0 0 0 0 0 0 0 0 0 0 0 0 0 0 0 0 0 0 127 0" result="hardAlpha"/>
<feOffset dy="4"/>
<feGaussianBlur stdDeviation="2"/>
<feComposite in2="hardAlpha" operator="out"/>
<feColorMatrix type="matrix" values="0 0 0 0 0 0 0 0 0 0 0 0 0 0 0 0 0 0 0.25 0"/>
<feBlend mode="normal" in2="BackgroundImageFix" result="effect1_dropShadow_401_5"/>
<feBlend mode="normal" in="SourceGraphic" in2="effect1_dropShadow_401_5" result="shape"/>
</filter>
<filter id="filter4_d_401_5" x="170" y="6" width="162" height="232" filterUnits="userSpaceOnUse" color-interpolation-filters="sRGB">
<feFlood flood-opacity="0" result="BackgroundImageFix"/>
<feColorMatrix in="SourceAlpha" type="matrix" values="0 0 0 0 0 0 0 0 0 0 0 0 0 0 0 0 0 0 127 0" result="hardAlpha"/>
<feOffset dy="4"/>
<feGaussianBlur stdDeviation="2"/>
<feComposite in2="hardAlpha" operator="out"/>
<feColorMatrix type="matrix" values="0 0 0 0 0 0 0 0 0 0 0 0 0 0 0 0 0 0 0.25 0"/>
<feBlend mode="normal" in2="BackgroundImageFix" result="effect1_dropShadow_401_5"/>
<feBlend mode="normal" in="SourceGraphic" in2="effect1_dropShadow_401_5" result="shape"/>
</filter>
<filter id="filter5_i_401_5" x="198" y="85" width="107" height="59" filterUnits="userSpaceOnUse" color-interpolation-filters="sRGB">
<feFlood flood-opacity="0" result="BackgroundImageFix"/>
<feBlend mode="normal" in="SourceGraphic" in2="BackgroundImageFix" result="shape"/>
<feColorMatrix in="SourceAlpha" type="matrix" values="0 0 0 0 0 0 0 0 0 0 0 0 0 0 0 0 0 0 127 0" result="hardAlpha"/>
<feMorphology radius="1" operator="erode" in="SourceAlpha" result="effect1_innerShadow_401_5"/>
<feOffset dx="2" dy="2"/>
<feGaussianBlur stdDeviation="2.5"/>
<feComposite in2="hardAlpha" operator="arithmetic" k2="-1" k3="1"/>
<feColorMatrix type="matrix" values="0 0 0 0 0 0 0 0 0 0 0 0 0 0 0 0 0 0 0.2 0"/>
<feBlend mode="normal" in2="shape" result="effect1_innerShadow_401_5"/>
</filter>
<filter id="filter6_d_401_5" x="230" y="92" width="42" height="53" filterUnits="userSpaceOnUse" color-interpolation-filters="sRGB">
<feFlood flood-opacity="0" result="BackgroundImageFix"/>
<feColorMatrix in="SourceAlpha" type="matrix" values="0 0 0 0 0 0 0 0 0 0 0 0 0 0 0 0 0 0 127 0" result="hardAlpha"/>
<feOffset dy="5"/>
<feGaussianBlur stdDeviation="2.5"/>
<feComposite in2="hardAlpha" operator="out"/>
<feColorMatrix type="matrix" values="0 0 0 0 0 0 0 0 0 0 0 0 0 0 0 0 0 0 0.46 0"/>
<feBlend mode="normal" in2="BackgroundImageFix" result="effect1_dropShadow_401_5"/>
<feBlend mode="normal" in="SourceGraphic" in2="effect1_dropShadow_401_5" result="shape"/>
</filter>
<filter id="filter7_d_401_5" x="204.482" y="6.6814" width="91.7681" height="30.7833" filterUnits="userSpaceOnUse" color-interpolation-filters="sRGB">
<feFlood flood-opacity="0" result="BackgroundImageFix"/>
<feColorMatrix in="SourceAlpha" type="matrix" values="0 0 0 0 0 0 0 0 0 0 0 0 0 0 0 0 0 0 127 0" result="hardAlpha"/>
<feOffset dy="4"/>
<feGaussianBlur stdDeviation="2"/>
<feComposite in2="hardAlpha" operator="out"/>
<feColorMatrix type="matrix" values="0 0 0 0 0 0 0 0 0 0 0 0 0 0 0 0 0 0 0.25 0"/>
<feBlend mode="normal" in2="BackgroundImageFix" result="effect1_dropShadow_401_5"/>
<feBlend mode="normal" in="SourceGraphic" in2="effect1_dropShadow_401_5" result="shape"/>
</filter>
<linearGradient id="paint0_linear_401_5" x1="80" y1="10" x2="80" y2="229.5" gradientUnits="userSpaceOnUse">
<stop stop-color="#2E8072"/>
<stop offset="1" stop-color="#00483C"/>
</linearGradient>
<linearGradient id="paint1_linear_401_5" x1="407" y1="10" x2="407" y2="229.5" gradientUnits="userSpaceOnUse">
<stop stop-color="#2E8072"/>
<stop offset="1" stop-color="#00483C"/>
</linearGradient>
<linearGradient id="paint2_linear_401_5" x1="251" y1="6" x2="251" y2="230" gradientUnits="userSpaceOnUse">
<stop stop-color="#00483C"/>
<stop offset="0.0001" stop-color="#2E8072"/>
<stop offset="1" stop-color="#00483C"/>
</linearGradient>
<linearGradient id="paint3_linear_401_5" x1="250.5" y1="85" x2="250.5" y2="142" gradientUnits="userSpaceOnUse">
<stop stop-color="#252727" stop-opacity="0.92"/>
<stop offset="1" stop-color="#252727" stop-opacity="0"/>
</linearGradient>
</defs>
</svg>