<svg width="215" height="115" viewBox="0 0 215 115" fill="none" xmlns="http://www.w3.org/2000/svg">
<g filter="url(#filter0_d_405_5)">
<path d="M43.496 85.928C41.512 85.928 39.4 85.992 37.16 86.12C34.984 86.248 32.776 86.44 30.536 86.696C28.296 86.952 26.088 87.304 23.912 87.752C21.8 88.136 19.88 88.616 18.152 89.192C18.536 86.312 18.984 83.112 19.496 79.592C20.008 76.072 20.584 72.424 21.224 68.648C21.928 64.872 22.6 61.064 23.24 57.224C23.944 53.384 24.648 49.704 25.352 46.184C26.952 37.8 28.648 29.256 30.44 20.552L47.24 18.344C45.512 25.768 43.848 33 42.248 40.04C41.544 43.048 40.84 46.184 40.136 49.448C39.432 52.648 38.76 55.784 38.12 58.856C37.48 61.928 36.904 64.904 36.392 67.784C35.88 70.664 35.464 73.224 35.144 75.464C36.744 75.336 38.44 75.272 40.232 75.272C42.088 75.208 43.72 75.176 45.128 75.176C45.192 76.392 45.288 77.608 45.416 78.824C45.544 79.976 45.672 81.032 45.8 81.992C45.992 82.952 46.12 83.816 46.184 84.584C46.312 85.288 46.408 85.768 46.472 86.024C45.96 86.024 45.448 86.024 44.936 86.024C44.488 85.96 44.008 85.928 43.496 85.928ZM97.5725 37.064C97.5725 42.312 96.9965 47.272 95.8445 51.944C94.7565 56.552 93.2845 60.808 91.4285 64.712C89.5725 68.552 87.3965 72.008 84.9005 75.08C82.4685 78.088 79.9085 80.68 77.2205 82.856C74.5325 84.968 71.8125 86.6 69.0605 87.752C66.3085 88.84 63.6845 89.384 61.1885 89.384C59.0765 89.384 57.1565 89 55.4285 88.232C53.7005 87.4 52.1965 86.216 50.9165 84.68C49.6365 83.08 48.6125 81.064 47.8445 78.632C47.1405 76.136 46.7885 73.16 46.7885 69.704C46.7885 66.12 47.2365 62.344 48.1325 58.376C49.0285 54.408 50.2445 50.472 51.7805 46.568C53.3165 42.664 55.2045 38.952 57.4445 35.432C59.6845 31.912 62.1485 28.808 64.8365 26.12C67.5245 23.368 70.4045 21.192 73.4765 19.592C76.5485 17.992 79.7485 17.192 83.0765 17.192C85.9565 17.192 88.3245 17.8 90.1805 19.016C92.1005 20.168 93.5725 21.704 94.5965 23.624C95.6845 25.48 96.4525 27.592 96.9005 29.96C97.3485 32.328 97.5725 34.696 97.5725 37.064ZM61.0925 67.208C61.0925 67.912 61.2205 68.648 61.4765 69.416C61.7325 70.184 62.0845 70.856 62.5325 71.432C62.9805 72.008 63.5245 72.52 64.1645 72.968C64.8685 73.352 65.6045 73.544 66.3725 73.544C69.2525 73.544 71.8125 72.552 74.0525 70.568C76.2925 68.584 78.1485 66.152 79.6205 63.272C81.0925 60.392 82.2125 57.32 82.9805 54.056C83.8125 50.792 84.2285 47.816 84.2285 45.128C84.2285 44.36 84.1645 43.528 84.0365 42.632C83.9725 41.736 83.7805 40.904 83.4605 40.136C83.2045 39.368 82.7565 38.728 82.1165 38.216C81.5405 37.64 80.7405 37.352 79.7165 37.352C77.6685 37.352 75.7805 37.864 74.0525 38.888C72.3245 39.912 70.7565 41.288 69.3485 43.016C68.0045 44.68 66.8205 46.6 65.7965 48.776C64.7725 50.888 63.8765 53.064 63.1085 55.304C62.4045 57.48 61.8925 59.624 61.5725 61.736C61.2525 63.848 61.0925 65.672 61.0925 67.208ZM143.38 52.424C142.932 58.952 141.652 64.648 139.54 69.512C137.428 74.312 134.868 78.344 131.86 81.608C128.916 84.872 125.716 87.304 122.26 88.904C118.868 90.504 115.636 91.304 112.564 91.304C110.196 91.304 107.924 90.792 105.748 89.768C103.636 88.744 101.78 87.208 100.18 85.16C98.6443 83.048 97.4283 80.424 96.5323 77.288C95.6363 74.152 95.1883 70.472 95.1883 66.248C95.1883 57.992 96.3723 50.792 98.7403 44.648C101.108 38.504 104.084 33.384 107.668 29.288C111.316 25.192 115.188 22.152 119.284 20.168C123.444 18.184 127.316 17.192 130.9 17.192C133.46 17.192 135.668 17.64 137.524 18.536C139.444 19.432 141.012 20.648 142.228 22.184C143.444 23.656 144.308 25.416 144.82 27.464C145.396 29.448 145.684 31.56 145.684 33.8L132.532 36.296C131.956 33.736 131.188 31.912 130.228 30.824C129.268 29.736 128.18 29.192 126.964 29.192C125.364 29.192 123.604 30.344 121.684 32.648C119.764 34.888 117.972 37.8 116.308 41.384C114.644 44.968 113.236 48.904 112.084 53.192C110.932 57.48 110.292 61.704 110.164 65.864C110.164 69.832 110.74 72.68 111.892 74.408C113.108 76.072 114.644 76.904 116.5 76.904C117.78 76.904 119.092 76.584 120.436 75.944C121.844 75.304 123.092 74.408 124.18 73.256C125.268 72.04 126.164 70.664 126.868 69.128C127.636 67.528 128.052 65.8 128.116 63.944L117.844 65.48L119.668 55.976C122.676 55.592 125.62 55.208 128.5 54.824C130.932 54.504 133.492 54.12 136.18 53.672C138.932 53.224 141.332 52.808 143.38 52.424ZM192.823 37.064C192.823 42.312 192.247 47.272 191.095 51.944C190.007 56.552 188.535 60.808 186.679 64.712C184.823 68.552 182.647 72.008 180.151 75.08C177.719 78.088 175.159 80.68 172.471 82.856C169.783 84.968 167.063 86.6 164.311 87.752C161.559 88.84 158.935 89.384 156.439 89.384C154.327 89.384 152.407 89 150.679 88.232C148.951 87.4 147.447 86.216 146.167 84.68C144.887 83.08 143.863 81.064 143.095 78.632C142.391 76.136 142.039 73.16 142.039 69.704C142.039 66.12 142.487 62.344 143.383 58.376C144.279 54.408 145.495 50.472 147.031 46.568C148.567 42.664 150.455 38.952 152.695 35.432C154.935 31.912 157.399 28.808 160.087 26.12C162.775 23.368 165.655 21.192 168.727 19.592C171.799 17.992 174.999 17.192 178.327 17.192C181.207 17.192 183.575 17.8 185.431 19.016C187.351 20.168 188.823 21.704 189.847 23.624C190.935 25.48 191.703 27.592 192.151 29.96C192.599 32.328 192.823 34.696 192.823 37.064ZM156.343 67.208C156.343 67.912 156.471 68.648 156.727 69.416C156.983 70.184 157.335 70.856 157.783 71.432C158.231 72.008 158.775 72.52 159.415 72.968C160.119 73.352 160.855 73.544 161.623 73.544C164.503 73.544 167.063 72.552 169.303 70.568C171.543 68.584 173.399 66.152 174.871 63.272C176.343 60.392 177.463 57.32 178.231 54.056C179.063 50.792 179.479 47.816 179.479 45.128C179.479 44.36 179.415 43.528 179.287 42.632C179.223 41.736 179.031 40.904 178.711 40.136C178.455 39.368 178.007 38.728 177.367 38.216C176.791 37.64 175.991 37.352 174.967 37.352C172.919 37.352 171.031 37.864 169.303 38.888C167.575 39.912 166.007 41.288 164.599 43.016C163.255 44.68 162.071 46.6 161.047 48.776C160.023 50.888 159.127 53.064 158.359 55.304C157.655 57.48 157.143 59.624 156.823 61.736C156.503 63.848 156.343 65.672 156.343 67.208Z" fill="url(#paint0_linear_405_5)" shape-rendering="crispEdges"/>
<path d="M37.16 86.12L37.0459 84.1233L37.0426 84.1235L37.16 86.12ZM30.536 86.696L30.7631 88.6831L30.536 86.696ZM23.912 87.752L24.2698 89.7197L24.2926 89.7156L24.3153 89.7109L23.912 87.752ZM18.152 89.192L16.1695 88.9277L15.7463 92.1021L18.7845 91.0894L18.152 89.192ZM19.496 79.592L17.5168 79.3041L17.5168 79.3041L19.496 79.592ZM21.224 68.648L19.2579 68.2814L19.2549 68.2976L19.2521 68.3138L21.224 68.648ZM23.24 57.224L21.2728 56.8633L21.2699 56.8792L21.2672 56.8952L23.24 57.224ZM25.352 46.184L27.3132 46.5762L27.3149 46.5676L27.3165 46.5589L25.352 46.184ZM30.44 20.552L30.1794 18.569L28.7681 18.7545L28.4811 20.1487L30.44 20.552ZM47.24 18.344L49.1879 18.7974L49.8426 15.9847L46.9794 16.361L47.24 18.344ZM42.248 40.04L44.1954 40.4958L44.1983 40.4832L42.248 40.04ZM40.136 49.448L42.0893 49.8777L42.091 49.8697L40.136 49.448ZM38.12 58.856L40.078 59.2639L40.078 59.2639L38.12 58.856ZM36.392 67.784L34.4229 67.4339L34.4229 67.4339L36.392 67.784ZM35.144 75.464L33.1641 75.1812L32.8104 77.6571L35.3035 77.4576L35.144 75.464ZM40.232 75.272V77.272H40.2665L40.3009 77.2708L40.232 75.272ZM45.128 75.176L47.1252 75.0709L47.0255 73.176H45.128V75.176ZM45.416 78.824L43.427 79.0334L43.4282 79.0449L45.416 78.824ZM45.8 81.992L43.8175 82.2563L43.8261 82.3206L43.8388 82.3842L45.8 81.992ZM46.184 84.584L44.1909 84.7501L44.1989 84.8465L44.2163 84.9418L46.184 84.584ZM46.472 86.024V88.024H49.0335L48.4123 85.5389L46.472 86.024ZM44.936 86.024L44.6532 88.0039L44.7939 88.024H44.936V86.024ZM43.496 83.928C41.4694 83.928 39.3191 83.9934 37.0459 84.1233L37.2741 88.1167C39.4809 87.9906 41.5546 87.928 43.496 87.928V83.928ZM37.0426 84.1235C34.8287 84.2537 32.5841 84.4489 30.3089 84.7089L30.7631 88.6831C32.9679 88.4311 35.1393 88.2423 37.2774 88.1165L37.0426 84.1235ZM30.3089 84.7089C28.0107 84.9716 25.7438 85.3329 23.5087 85.7931L24.3153 89.7109C26.4322 89.2751 28.5813 88.9324 30.7631 88.6831L30.3089 84.7089ZM23.5542 85.7843C21.3651 86.1823 19.3515 86.684 17.5195 87.2946L18.7845 91.0894C20.4085 90.548 22.2349 90.0897 24.2698 89.7197L23.5542 85.7843ZM20.1345 89.4563C20.5172 86.5857 20.9641 83.3937 21.4752 79.8799L17.5168 79.3041C17.0039 82.8303 16.5548 86.0383 16.1695 88.9277L20.1345 89.4563ZM21.4752 79.8799C21.9848 76.3765 22.5583 72.744 23.1959 68.9822L19.2521 68.3138C18.6097 72.104 18.0312 75.7675 17.5168 79.3041L21.4752 79.8799ZM23.1901 69.0146C23.8965 65.2258 24.5707 61.4052 25.2128 57.5528L21.2672 56.8952C20.6293 60.7228 19.9595 64.5182 19.2579 68.2814L23.1901 69.0146ZM25.2072 57.5847C25.9094 53.7543 26.6114 50.0849 27.3132 46.5762L23.3908 45.7918C22.6846 49.3231 21.9786 53.0137 21.2728 56.8633L25.2072 57.5847ZM27.3165 46.5589C28.9147 38.1848 30.6088 29.6502 32.3989 20.9553L28.4811 20.1487C26.6872 28.8618 24.9893 37.4152 23.3875 45.8091L27.3165 46.5589ZM30.7006 22.5349L47.5006 20.3269L46.9794 16.361L30.1794 18.569L30.7006 22.5349ZM45.2921 17.8906C43.5633 25.3178 41.8985 32.5532 40.2977 39.5968L44.1983 40.4832C45.7975 33.4468 47.4607 26.2182 49.1879 18.7974L45.2921 17.8906ZM40.3006 39.5842C39.5938 42.6044 38.8872 45.7518 38.181 49.0263L42.091 49.8697C42.7928 46.6162 43.4942 43.4916 44.1954 40.4958L40.3006 39.5842ZM38.1827 49.0183C37.4772 52.2252 36.8036 55.3685 36.162 58.4481L40.078 59.2639C40.7164 56.1995 41.3868 53.0708 42.0893 49.8777L38.1827 49.0183ZM36.162 58.4481C35.5183 61.5379 34.9386 64.5333 34.4229 67.4339L38.3611 68.1341C38.8695 65.2747 39.4417 62.3181 40.078 59.2639L36.162 58.4481ZM34.4229 67.4339C33.908 70.3302 33.4881 72.9133 33.1641 75.1812L37.1239 75.7468C37.4399 73.5347 37.852 70.9978 38.3611 68.1341L34.4229 67.4339ZM35.3035 77.4576C36.8448 77.3343 38.4872 77.272 40.232 77.272V73.272C38.3928 73.272 36.6433 73.3377 34.9845 73.4704L35.3035 77.4576ZM40.3009 77.2708C42.1407 77.2074 43.7489 77.176 45.128 77.176V73.176C43.6911 73.176 42.0353 73.2086 40.1631 73.2732L40.3009 77.2708ZM43.1308 75.2811C43.1966 76.5321 43.2954 77.7828 43.427 79.0334L47.405 78.6146C47.2806 77.4332 47.1874 76.2519 47.1252 75.0709L43.1308 75.2811ZM43.4282 79.0449C43.5575 80.2087 43.6873 81.2794 43.8175 82.2563L47.7825 81.7277C47.6567 80.7846 47.5305 79.7433 47.4038 78.6031L43.4282 79.0449ZM43.8388 82.3842C44.0197 83.2884 44.1347 84.0751 44.1909 84.7501L48.1771 84.4179C48.1053 83.5569 47.9643 82.6156 47.7612 81.5998L43.8388 82.3842ZM44.2163 84.9418C44.3432 85.64 44.4497 86.181 44.5317 86.5091L48.4123 85.5389C48.3663 85.355 48.2808 84.936 48.1517 84.2262L44.2163 84.9418ZM46.472 84.024C46.471 84.024 46.47 84.024 46.469 84.024C46.468 84.024 46.467 84.024 46.466 84.024C46.465 84.024 46.464 84.024 46.463 84.024C46.462 84.024 46.461 84.024 46.46 84.024C46.459 84.024 46.458 84.024 46.457 84.024C46.456 84.024 46.455 84.024 46.454 84.024C46.453 84.024 46.452 84.024 46.451 84.024C46.45 84.024 46.449 84.024 46.448 84.024C46.447 84.024 46.446 84.024 46.445 84.024C46.444 84.024 46.443 84.024 46.442 84.024C46.441 84.024 46.44 84.024 46.439 84.024C46.438 84.024 46.437 84.024 46.436 84.024C46.435 84.024 46.434 84.024 46.433 84.024C46.432 84.024 46.431 84.024 46.43 84.024C46.429 84.024 46.428 84.024 46.427 84.024C46.426 84.024 46.425 84.024 46.424 84.024C46.423 84.024 46.422 84.024 46.421 84.024C46.42 84.024 46.419 84.024 46.418 84.024C46.417 84.024 46.416 84.024 46.415 84.024C46.414 84.024 46.413 84.024 46.412 84.024C46.411 84.024 46.41 84.024 46.409 84.024C46.408 84.024 46.407 84.024 46.406 84.024C46.405 84.024 46.404 84.024 46.403 84.024C46.402 84.024 46.401 84.024 46.4 84.024C46.399 84.024 46.398 84.024 46.397 84.024C46.396 84.024 46.395 84.024 46.394 84.024C46.393 84.024 46.392 84.024 46.391 84.024C46.39 84.024 46.389 84.024 46.388 84.024C46.387 84.024 46.386 84.024 46.385 84.024C46.384 84.024 46.383 84.024 46.382 84.024C46.381 84.024 46.38 84.024 46.379 84.024C46.378 84.024 46.377 84.024 46.376 84.024C46.375 84.024 46.374 84.024 46.373 84.024C46.372 84.024 46.371 84.024 46.37 84.024C46.369 84.024 46.368 84.024 46.367 84.024C46.366 84.024 46.365 84.024 46.364 84.024C46.363 84.024 46.362 84.024 46.361 84.024C46.36 84.024 46.359 84.024 46.358 84.024C46.357 84.024 46.356 84.024 46.355 84.024C46.354 84.024 46.353 84.024 46.352 84.024C46.351 84.024 46.35 84.024 46.349 84.024C46.348 84.024 46.347 84.024 46.346 84.024C46.345 84.024 46.344 84.024 46.343 84.024C46.342 84.024 46.341 84.024 46.34 84.024C46.339 84.024 46.338 84.024 46.337 84.024C46.336 84.024 46.335 84.024 46.334 84.024C46.333 84.024 46.332 84.024 46.331 84.024C46.33 84.024 46.329 84.024 46.328 84.024C46.327 84.024 46.326 84.024 46.325 84.024C46.324 84.024 46.323 84.024 46.322 84.024C46.321 84.024 46.32 84.024 46.319 84.024C46.318 84.024 46.317 84.024 46.316 84.024C46.315 84.024 46.314 84.024 46.313 84.024C46.312 84.024 46.311 84.024 46.31 84.024C46.309 84.024 46.308 84.024 46.307 84.024C46.306 84.024 46.305 84.024 46.304 84.024C46.303 84.024 46.302 84.024 46.301 84.024C46.3 84.024 46.299 84.024 46.298 84.024C46.297 84.024 46.296 84.024 46.295 84.024C46.294 84.024 46.293 84.024 46.292 84.024C46.291 84.024 46.29 84.024 46.289 84.024C46.288 84.024 46.287 84.024 46.286 84.024C46.285 84.024 46.284 84.024 46.283 84.024C46.282 84.024 46.281 84.024 46.28 84.024C46.279 84.024 46.278 84.024 46.277 84.024C46.276 84.024 46.275 84.024 46.274 84.024C46.273 84.024 46.272 84.024 46.271 84.024C46.27 84.024 46.269 84.024 46.268 84.024C46.267 84.024 46.266 84.024 46.265 84.024C46.264 84.024 46.263 84.024 46.262 84.024C46.261 84.024 46.26 84.024 46.259 84.024C46.258 84.024 46.257 84.024 46.256 84.024C46.255 84.024 46.254 84.024 46.253 84.024C46.252 84.024 46.251 84.024 46.25 84.024C46.249 84.024 46.248 84.024 46.247 84.024C46.246 84.024 46.245 84.024 46.244 84.024C46.243 84.024 46.242 84.024 46.241 84.024C46.24 84.024 46.239 84.024 46.238 84.024C46.237 84.024 46.236 84.024 46.235 84.024C46.234 84.024 46.233 84.024 46.232 84.024C46.231 84.024 46.23 84.024 46.229 84.024C46.228 84.024 46.227 84.024 46.226 84.024C46.225 84.024 46.224 84.024 46.223 84.024C46.222 84.024 46.221 84.024 46.22 84.024C46.219 84.024 46.218 84.024 46.217 84.024C46.216 84.024 46.215 84.024 46.214 84.024C46.213 84.024 46.212 84.024 46.211 84.024C46.21 84.024 46.209 84.024 46.208 84.024C46.207 84.024 46.206 84.024 46.205 84.024C46.204 84.024 46.203 84.024 46.202 84.024C46.201 84.024 46.2 84.024 46.199 84.024C46.198 84.024 46.197 84.024 46.196 84.024C46.195 84.024 46.194 84.024 46.193 84.024C46.192 84.024 46.191 84.024 46.19 84.024C46.189 84.024 46.188 84.024 46.187 84.024C46.186 84.024 46.185 84.024 46.184 84.024C46.183 84.024 46.182 84.024 46.181 84.024C46.18 84.024 46.179 84.024 46.178 84.024C46.177 84.024 46.176 84.024 46.175 84.024C46.174 84.024 46.173 84.024 46.172 84.024C46.171 84.024 46.17 84.024 46.169 84.024C46.168 84.024 46.167 84.024 46.166 84.024C46.165 84.024 46.164 84.024 46.163 84.024C46.162 84.024 46.161 84.024 46.16 84.024C46.159 84.024 46.158 84.024 46.157 84.024C46.156 84.024 46.155 84.024 46.154 84.024C46.153 84.024 46.152 84.024 46.151 84.024C46.15 84.024 46.149 84.024 46.148 84.024C46.147 84.024 46.146 84.024 46.145 84.024C46.144 84.024 46.143 84.024 46.142 84.024C46.141 84.024 46.14 84.024 46.139 84.024C46.138 84.024 46.137 84.024 46.136 84.024C46.135 84.024 46.134 84.024 46.133 84.024C46.132 84.024 46.131 84.024 46.13 84.024C46.129 84.024 46.128 84.024 46.127 84.024C46.126 84.024 46.125 84.024 46.124 84.024C46.123 84.024 46.122 84.024 46.121 84.024C46.12 84.024 46.119 84.024 46.118 84.024C46.117 84.024 46.116 84.024 46.115 84.024C46.114 84.024 46.113 84.024 46.112 84.024C46.111 84.024 46.11 84.024 46.109 84.024C46.108 84.024 46.107 84.024 46.106 84.024C46.105 84.024 46.104 84.024 46.103 84.024C46.102 84.024 46.101 84.024 46.1 84.024C46.099 84.024 46.098 84.024 46.097 84.024C46.096 84.024 46.095 84.024 46.094 84.024C46.093 84.024 46.092 84.024 46.091 84.024C46.09 84.024 46.089 84.024 46.088 84.024C46.087 84.024 46.086 84.024 46.085 84.024C46.084 84.024 46.083 84.024 46.082 84.024C46.081 84.024 46.08 84.024 46.079 84.024C46.078 84.024 46.077 84.024 46.076 84.024C46.075 84.024 46.074 84.024 46.073 84.024C46.072 84.024 46.071 84.024 46.07 84.024C46.069 84.024 46.068 84.024 46.067 84.024C46.066 84.024 46.065 84.024 46.064 84.024C46.063 84.024 46.062 84.024 46.061 84.024C46.06 84.024 46.059 84.024 46.058 84.024C46.057 84.024 46.056 84.024 46.055 84.024C46.054 84.024 46.053 84.024 46.052 84.024C46.051 84.024 46.05 84.024 46.049 84.024C46.048 84.024 46.047 84.024 46.046 84.024C46.045 84.024 46.044 84.024 46.043 84.024C46.042 84.024 46.041 84.024 46.04 84.024C46.039 84.024 46.038 84.024 46.037 84.024C46.036 84.024 46.035 84.024 46.034 84.024C46.033 84.024 46.032 84.024 46.031 84.024C46.03 84.024 46.029 84.024 46.028 84.024C46.027 84.024 46.026 84.024 46.025 84.024C46.024 84.024 46.023 84.024 46.022 84.024C46.021 84.024 46.02 84.024 46.019 84.024C46.018 84.024 46.017 84.024 46.016 84.024C46.015 84.024 46.014 84.024 46.013 84.024C46.012 84.024 46.011 84.024 46.01 84.024C46.009 84.024 46.008 84.024 46.007 84.024C46.006 84.024 46.005 84.024 46.004 84.024C46.003 84.024 46.002 84.024 46.001 84.024C46 84.024 45.999 84.024 45.998 84.024C45.997 84.024 45.996 84.024 45.995 84.024C45.994 84.024 45.993 84.024 45.992 84.024C45.991 84.024 45.99 84.024 45.989 84.024C45.988 84.024 45.987 84.024 45.986 84.024C45.985 84.024 45.984 84.024 45.983 84.024C45.982 84.024 45.981 84.024 45.98 84.024C45.979 84.024 45.978 84.024 45.977 84.024C45.976 84.024 45.975 84.024 45.974 84.024C45.973 84.024 45.972 84.024 45.971 84.024C45.97 84.024 45.969 84.024 45.968 84.024C45.967 84.024 45.966 84.024 45.965 84.024C45.964 84.024 45.963 84.024 45.962 84.024C45.961 84.024 45.96 84.024 45.959 84.024C45.958 84.024 45.957 84.024 45.956 84.024C45.955 84.024 45.954 84.024 45.953 84.024C45.952 84.024 45.951 84.024 45.95 84.024C45.949 84.024 45.948 84.024 45.947 84.024C45.946 84.024 45.945 84.024 45.944 84.024C45.943 84.024 45.942 84.024 45.941 84.024C45.94 84.024 45.939 84.024 45.938 84.024C45.937 84.024 45.936 84.024 45.935 84.024C45.934 84.024 45.933 84.024 45.932 84.024C45.931 84.024 45.93 84.024 45.929 84.024C45.928 84.024 45.927 84.024 45.926 84.024C45.925 84.024 45.924 84.024 45.923 84.024C45.922 84.024 45.921 84.024 45.92 84.024C45.919 84.024 45.918 84.024 45.917 84.024C45.916 84.024 45.915 84.024 45.914 84.024C45.913 84.024 45.912 84.024 45.911 84.024C45.91 84.024 45.909 84.024 45.908 84.024C45.907 84.024 45.906 84.024 45.905 84.024C45.904 84.024 45.903 84.024 45.902 84.024C45.901 84.024 45.9 84.024 45.899 84.024C45.898 84.024 45.897 84.024 45.896 84.024C45.895 84.024 45.894 84.024 45.893 84.024C45.892 84.024 45.891 84.024 45.89 84.024C45.889 84.024 45.888 84.024 45.887 84.024C45.886 84.024 45.885 84.024 45.884 84.024C45.883 84.024 45.882 84.024 45.881 84.024C45.88 84.024 45.879 84.024 45.878 84.024C45.877 84.024 45.876 84.024 45.875 84.024C45.874 84.024 45.873 84.024 45.872 84.024C45.871 84.024 45.87 84.024 45.869 84.024C45.868 84.024 45.867 84.024 45.866 84.024C45.865 84.024 45.864 84.024 45.863 84.024C45.862 84.024 45.861 84.024 45.86 84.024C45.859 84.024 45.858 84.024 45.857 84.024C45.856 84.024 45.855 84.024 45.854 84.024C45.853 84.024 45.852 84.024 45.851 84.024C45.85 84.024 45.849 84.024 45.848 84.024C45.847 84.024 45.846 84.024 45.845 84.024C45.844 84.024 45.843 84.024 45.842 84.024C45.841 84.024 45.84 84.024 45.839 84.024C45.838 84.024 45.837 84.024 45.836 84.024C45.835 84.024 45.834 84.024 45.833 84.024C45.832 84.024 45.831 84.024 45.83 84.024C45.829 84.024 45.828 84.024 45.827 84.024C45.826 84.024 45.825 84.024 45.824 84.024C45.823 84.024 45.822 84.024 45.821 84.024C45.82 84.024 45.819 84.024 45.818 84.024C45.817 84.024 45.816 84.024 45.815 84.024C45.814 84.024 45.813 84.024 45.812 84.024C45.811 84.024 45.81 84.024 45.809 84.024C45.808 84.024 45.807 84.024 45.806 84.024C45.805 84.024 45.804 84.024 45.803 84.024C45.802 84.024 45.801 84.024 45.8 84.024C45.799 84.024 45.798 84.024 45.797 84.024C45.796 84.024 45.795 84.024 45.794 84.024C45.793 84.024 45.792 84.024 45.791 84.024C45.79 84.024 45.789 84.024 45.788 84.024C45.787 84.024 45.786 84.024 45.785 84.024C45.784 84.024 45.783 84.024 45.782 84.024C45.781 84.024 45.78 84.024 45.779 84.024C45.778 84.024 45.777 84.024 45.776 84.024C45.775 84.024 45.774 84.024 45.773 84.024C45.772 84.024 45.771 84.024 45.77 84.024C45.769 84.024 45.768 84.024 45.767 84.024C45.766 84.024 45.765 84.024 45.764 84.024C45.763 84.024 45.762 84.024 45.761 84.024C45.76 84.024 45.759 84.024 45.758 84.024C45.757 84.024 45.756 84.024 45.755 84.024C45.754 84.024 45.753 84.024 45.752 84.024C45.751 84.024 45.75 84.024 45.749 84.024C45.748 84.024 45.747 84.024 45.746 84.024C45.745 84.024 45.744 84.024 45.743 84.024C45.742 84.024 45.741 84.024 45.74 84.024C45.739 84.024 45.738 84.024 45.737 84.024C45.736 84.024 45.735 84.024 45.734 84.024C45.733 84.024 45.732 84.024 45.731 84.024C45.73 84.024 45.729 84.024 45.728 84.024C45.727 84.024 45.726 84.024 45.725 84.024C45.724 84.024 45.723 84.024 45.722 84.024C45.721 84.024 45.72 84.024 45.719 84.024C45.718 84.024 45.717 84.024 45.716 84.024C45.715 84.024 45.714 84.024 45.713 84.024C45.712 84.024 45.711 84.024 45.71 84.024C45.709 84.024 45.708 84.024 45.707 84.024C45.706 84.024 45.705 84.024 45.704 84.024C45.703 84.024 45.702 84.024 45.701 84.024C45.7 84.024 45.699 84.024 45.698 84.024C45.697 84.024 45.696 84.024 45.695 84.024C45.694 84.024 45.693 84.024 45.692 84.024C45.691 84.024 45.69 84.024 45.689 84.024C45.688 84.024 45.687 84.024 45.686 84.024C45.685 84.024 45.684 84.024 45.683 84.024C45.682 84.024 45.681 84.024 45.68 84.024C45.679 84.024 45.678 84.024 45.677 84.024C45.676 84.024 45.675 84.024 45.674 84.024C45.673 84.024 45.672 84.024 45.671 84.024C45.67 84.024 45.669 84.024 45.668 84.024C45.667 84.024 45.666 84.024 45.665 84.024C45.664 84.024 45.663 84.024 45.662 84.024C45.661 84.024 45.66 84.024 45.659 84.024C45.658 84.024 45.657 84.024 45.656 84.024C45.655 84.024 45.654 84.024 45.653 84.024C45.652 84.024 45.651 84.024 45.65 84.024C45.649 84.024 45.648 84.024 45.647 84.024C45.646 84.024 45.645 84.024 45.644 84.024C45.643 84.024 45.642 84.024 45.641 84.024C45.64 84.024 45.639 84.024 45.638 84.024C45.637 84.024 45.636 84.024 45.635 84.024C45.634 84.024 45.633 84.024 45.632 84.024C45.631 84.024 45.63 84.024 45.629 84.024C45.628 84.024 45.627 84.024 45.626 84.024C45.625 84.024 45.624 84.024 45.623 84.024C45.622 84.024 45.621 84.024 45.62 84.024C45.619 84.024 45.618 84.024 45.617 84.024C45.616 84.024 45.615 84.024 45.614 84.024C45.613 84.024 45.612 84.024 45.611 84.024C45.61 84.024 45.609 84.024 45.608 84.024C45.607 84.024 45.606 84.024 45.605 84.024C45.604 84.024 45.603 84.024 45.602 84.024C45.601 84.024 45.6 84.024 45.599 84.024C45.598 84.024 45.597 84.024 45.596 84.024C45.595 84.024 45.594 84.024 45.593 84.024C45.592 84.024 45.591 84.024 45.59 84.024C45.589 84.024 45.588 84.024 45.587 84.024C45.586 84.024 45.585 84.024 45.584 84.024C45.583 84.024 45.582 84.024 45.581 84.024C45.58 84.024 45.579 84.024 45.578 84.024C45.577 84.024 45.576 84.024 45.575 84.024C45.574 84.024 45.573 84.024 45.572 84.024C45.571 84.024 45.57 84.024 45.569 84.024C45.568 84.024 45.567 84.024 45.566 84.024C45.565 84.024 45.564 84.024 45.563 84.024C45.562 84.024 45.561 84.024 45.56 84.024C45.559 84.024 45.558 84.024 45.557 84.024C45.556 84.024 45.555 84.024 45.554 84.024C45.553 84.024 45.552 84.024 45.551 84.024C45.55 84.024 45.549 84.024 45.548 84.024C45.547 84.024 45.546 84.024 45.545 84.024C45.544 84.024 45.543 84.024 45.542 84.024C45.541 84.024 45.54 84.024 45.539 84.024C45.538 84.024 45.537 84.024 45.536 84.024C45.535 84.024 45.534 84.024 45.533 84.024C45.532 84.024 45.531 84.024 45.53 84.024C45.529 84.024 45.528 84.024 45.527 84.024C45.526 84.024 45.525 84.024 45.524 84.024C45.523 84.024 45.522 84.024 45.521 84.024C45.52 84.024 45.519 84.024 45.518 84.024C45.517 84.024 45.516 84.024 45.515 84.024C45.514 84.024 45.513 84.024 45.512 84.024C45.511 84.024 45.51 84.024 45.509 84.024C45.508 84.024 45.507 84.024 45.506 84.024C45.505 84.024 45.504 84.024 45.503 84.024C45.502 84.024 45.501 84.024 45.5 84.024C45.499 84.024 45.498 84.024 45.497 84.024C45.496 84.024 45.495 84.024 45.494 84.024C45.493 84.024 45.492 84.024 45.491 84.024C45.49 84.024 45.489 84.024 45.488 84.024C45.487 84.024 45.486 84.024 45.485 84.024C45.484 84.024 45.483 84.024 45.482 84.024C45.481 84.024 45.48 84.024 45.479 84.024C45.478 84.024 45.477 84.024 45.476 84.024C45.475 84.024 45.474 84.024 45.473 84.024C45.472 84.024 45.471 84.024 45.47 84.024C45.469 84.024 45.468 84.024 45.467 84.024C45.466 84.024 45.465 84.024 45.464 84.024C45.463 84.024 45.462 84.024 45.461 84.024C45.46 84.024 45.459 84.024 45.458 84.024C45.457 84.024 45.456 84.024 45.455 84.024C45.454 84.024 45.453 84.024 45.452 84.024C45.451 84.024 45.45 84.024 45.449 84.024C45.448 84.024 45.447 84.024 45.446 84.024C45.445 84.024 45.444 84.024 45.443 84.024C45.442 84.024 45.441 84.024 45.44 84.024C45.439 84.024 45.438 84.024 45.437 84.024C45.436 84.024 45.435 84.024 45.434 84.024C45.433 84.024 45.432 84.024 45.431 84.024C45.43 84.024 45.429 84.024 45.428 84.024C45.427 84.024 45.426 84.024 45.425 84.024C45.424 84.024 45.423 84.024 45.422 84.024C45.421 84.024 45.42 84.024 45.419 84.024C45.418 84.024 45.417 84.024 45.416 84.024C45.415 84.024 45.414 84.024 45.413 84.024C45.412 84.024 45.411 84.024 45.41 84.024C45.409 84.024 45.408 84.024 45.407 84.024C45.406 84.024 45.405 84.024 45.404 84.024C45.403 84.024 45.402 84.024 45.401 84.024C45.4 84.024 45.399 84.024 45.398 84.024C45.397 84.024 45.396 84.024 45.395 84.024C45.394 84.024 45.393 84.024 45.392 84.024C45.391 84.024 45.39 84.024 45.389 84.024C45.388 84.024 45.387 84.024 45.386 84.024C45.385 84.024 45.384 84.024 45.383 84.024C45.382 84.024 45.381 84.024 45.38 84.024C45.379 84.024 45.378 84.024 45.377 84.024C45.376 84.024 45.375 84.024 45.374 84.024C45.373 84.024 45.372 84.024 45.371 84.024C45.37 84.024 45.369 84.024 45.368 84.024C45.367 84.024 45.366 84.024 45.365 84.024C45.364 84.024 45.363 84.024 45.362 84.024C45.361 84.024 45.36 84.024 45.359 84.024C45.358 84.024 45.357 84.024 45.356 84.024C45.355 84.024 45.354 84.024 45.353 84.024C45.352 84.024 45.351 84.024 45.35 84.024C45.349 84.024 45.348 84.024 45.347 84.024C45.346 84.024 45.345 84.024 45.344 84.024C45.343 84.024 45.342 84.024 45.341 84.024C45.34 84.024 45.339 84.024 45.338 84.024C45.337 84.024 45.336 84.024 45.335 84.024C45.334 84.024 45.333 84.024 45.332 84.024C45.331 84.024 45.33 84.024 45.329 84.024C45.328 84.024 45.327 84.024 45.326 84.024C45.325 84.024 45.324 84.024 45.323 84.024C45.322 84.024 45.321 84.024 45.32 84.024C45.319 84.024 45.318 84.024 45.317 84.024C45.316 84.024 45.315 84.024 45.314 84.024C45.313 84.024 45.312 84.024 45.311 84.024C45.31 84.024 45.309 84.024 45.308 84.024C45.307 84.024 45.306 84.024 45.305 84.024C45.304 84.024 45.303 84.024 45.302 84.024C45.301 84.024 45.3 84.024 45.299 84.024C45.298 84.024 45.297 84.024 45.296 84.024C45.295 84.024 45.294 84.024 45.293 84.024C45.292 84.024 45.291 84.024 45.29 84.024C45.289 84.024 45.288 84.024 45.287 84.024C45.286 84.024 45.285 84.024 45.284 84.024C45.283 84.024 45.282 84.024 45.281 84.024C45.28 84.024 45.279 84.024 45.278 84.024C45.277 84.024 45.276 84.024 45.275 84.024C45.274 84.024 45.273 84.024 45.272 84.024C45.271 84.024 45.27 84.024 45.269 84.024C45.268 84.024 45.267 84.024 45.266 84.024C45.265 84.024 45.264 84.024 45.263 84.024C45.262 84.024 45.261 84.024 45.26 84.024C45.259 84.024 45.258 84.024 45.257 84.024C45.256 84.024 45.255 84.024 45.254 84.024C45.253 84.024 45.252 84.024 45.251 84.024C45.25 84.024 45.249 84.024 45.248 84.024C45.247 84.024 45.246 84.024 45.245 84.024C45.244 84.024 45.243 84.024 45.242 84.024C45.241 84.024 45.24 84.024 45.239 84.024C45.238 84.024 45.237 84.024 45.236 84.024C45.235 84.024 45.234 84.024 45.233 84.024C45.232 84.024 45.231 84.024 45.23 84.024C45.229 84.024 45.228 84.024 45.227 84.024C45.226 84.024 45.225 84.024 45.224 84.024C45.223 84.024 45.222 84.024 45.221 84.024C45.22 84.024 45.219 84.024 45.218 84.024C45.217 84.024 45.216 84.024 45.215 84.024C45.214 84.024 45.213 84.024 45.212 84.024C45.211 84.024 45.21 84.024 45.209 84.024C45.208 84.024 45.207 84.024 45.206 84.024C45.205 84.024 45.204 84.024 45.203 84.024C45.202 84.024 45.201 84.024 45.2 84.024C45.199 84.024 45.198 84.024 45.197 84.024C45.196 84.024 45.195 84.024 45.194 84.024C45.193 84.024 45.192 84.024 45.191 84.024C45.19 84.024 45.189 84.024 45.188 84.024C45.187 84.024 45.186 84.024 45.185 84.024C45.184 84.024 45.183 84.024 45.182 84.024C45.181 84.024 45.18 84.024 45.179 84.024C45.178 84.024 45.177 84.024 45.176 84.024C45.175 84.024 45.174 84.024 45.173 84.024C45.172 84.024 45.171 84.024 45.17 84.024C45.169 84.024 45.168 84.024 45.167 84.024C45.166 84.024 45.165 84.024 45.164 84.024C45.163 84.024 45.162 84.024 45.161 84.024C45.16 84.024 45.159 84.024 45.158 84.024C45.157 84.024 45.156 84.024 45.155 84.024C45.154 84.024 45.153 84.024 45.152 84.024C45.151 84.024 45.15 84.024 45.149 84.024C45.148 84.024 45.147 84.024 45.146 84.024C45.145 84.024 45.144 84.024 45.143 84.024C45.142 84.024 45.141 84.024 45.14 84.024C45.139 84.024 45.138 84.024 45.137 84.024C45.136 84.024 45.135 84.024 45.134 84.024C45.133 84.024 45.132 84.024 45.131 84.024C45.13 84.024 45.129 84.024 45.128 84.024C45.127 84.024 45.126 84.024 45.125 84.024C45.124 84.024 45.123 84.024 45.122 84.024C45.121 84.024 45.12 84.024 45.119 84.024C45.118 84.024 45.117 84.024 45.116 84.024C45.115 84.024 45.114 84.024 45.113 84.024C45.112 84.024 45.111 84.024 45.11 84.024C45.109 84.024 45.108 84.024 45.107 84.024C45.106 84.024 45.105 84.024 45.104 84.024C45.103 84.024 45.102 84.024 45.101 84.024C45.1 84.024 45.099 84.024 45.098 84.024C45.097 84.024 45.096 84.024 45.095 84.024C45.094 84.024 45.093 84.024 45.092 84.024C45.091 84.024 45.09 84.024 45.089 84.024C45.088 84.024 45.087 84.024 45.086 84.024C45.085 84.024 45.084 84.024 45.083 84.024C45.082 84.024 45.081 84.024 45.08 84.024C45.079 84.024 45.078 84.024 45.077 84.024C45.076 84.024 45.075 84.024 45.074 84.024C45.073 84.024 45.072 84.024 45.071 84.024C45.07 84.024 45.069 84.024 45.068 84.024C45.067 84.024 45.066 84.024 45.065 84.024C45.064 84.024 45.063 84.024 45.062 84.024C45.061 84.024 45.06 84.024 45.059 84.024C45.058 84.024 45.057 84.024 45.056 84.024C45.055 84.024 45.054 84.024 45.053 84.024C45.052 84.024 45.051 84.024 45.05 84.024C45.049 84.024 45.048 84.024 45.047 84.024C45.046 84.024 45.045 84.024 45.044 84.024C45.043 84.024 45.042 84.024 45.041 84.024C45.04 84.024 45.039 84.024 45.038 84.024C45.037 84.024 45.036 84.024 45.035 84.024C45.034 84.024 45.033 84.024 45.032 84.024C45.031 84.024 45.03 84.024 45.029 84.024C45.028 84.024 45.027 84.024 45.026 84.024C45.025 84.024 45.024 84.024 45.023 84.024C45.022 84.024 45.021 84.024 45.02 84.024C45.019 84.024 45.018 84.024 45.017 84.024C45.016 84.024 45.015 84.024 45.014 84.024C45.013 84.024 45.012 84.024 45.011 84.024C45.01 84.024 45.009 84.024 45.008 84.024C45.007 84.024 45.006 84.024 45.005 84.024C45.004 84.024 45.003 84.024 45.002 84.024C45.001 84.024 45 84.024 44.999 84.024C44.998 84.024 44.997 84.024 44.996 84.024C44.995 84.024 44.994 84.024 44.993 84.024C44.992 84.024 44.991 84.024 44.99 84.024C44.989 84.024 44.988 84.024 44.987 84.024C44.986 84.024 44.985 84.024 44.984 84.024C44.983 84.024 44.982 84.024 44.981 84.024C44.98 84.024 44.979 84.024 44.978 84.024C44.977 84.024 44.976 84.024 44.975 84.024C44.974 84.024 44.973 84.024 44.972 84.024C44.971 84.024 44.97 84.024 44.969 84.024C44.968 84.024 44.967 84.024 44.966 84.024C44.965 84.024 44.964 84.024 44.963 84.024C44.962 84.024 44.961 84.024 44.96 84.024C44.959 84.024 44.958 84.024 44.957 84.024C44.956 84.024 44.955 84.024 44.954 84.024C44.953 84.024 44.952 84.024 44.951 84.024C44.95 84.024 44.949 84.024 44.948 84.024C44.947 84.024 44.946 84.024 44.945 84.024C44.944 84.024 44.943 84.024 44.942 84.024C44.941 84.024 44.94 84.024 44.939 84.024C44.938 84.024 44.937 84.024 44.936 84.024V88.024C44.937 88.024 44.938 88.024 44.939 88.024C44.94 88.024 44.941 88.024 44.942 88.024C44.943 88.024 44.944 88.024 44.945 88.024C44.946 88.024 44.947 88.024 44.948 88.024C44.949 88.024 44.95 88.024 44.951 88.024C44.952 88.024 44.953 88.024 44.954 88.024C44.955 88.024 44.956 88.024 44.957 88.024C44.958 88.024 44.959 88.024 44.96 88.024C44.961 88.024 44.962 88.024 44.963 88.024C44.964 88.024 44.965 88.024 44.966 88.024C44.967 88.024 44.968 88.024 44.969 88.024C44.97 88.024 44.971 88.024 44.972 88.024C44.973 88.024 44.974 88.024 44.975 88.024C44.976 88.024 44.977 88.024 44.978 88.024C44.979 88.024 44.98 88.024 44.981 88.024C44.982 88.024 44.983 88.024 44.984 88.024C44.985 88.024 44.986 88.024 44.987 88.024C44.988 88.024 44.989 88.024 44.99 88.024C44.991 88.024 44.992 88.024 44.993 88.024C44.994 88.024 44.995 88.024 44.996 88.024C44.997 88.024 44.998 88.024 44.999 88.024C45 88.024 45.001 88.024 45.002 88.024C45.003 88.024 45.004 88.024 45.005 88.024C45.006 88.024 45.007 88.024 45.008 88.024C45.009 88.024 45.01 88.024 45.011 88.024C45.012 88.024 45.013 88.024 45.014 88.024C45.015 88.024 45.016 88.024 45.017 88.024C45.018 88.024 45.019 88.024 45.02 88.024C45.021 88.024 45.022 88.024 45.023 88.024C45.024 88.024 45.025 88.024 45.026 88.024C45.027 88.024 45.028 88.024 45.029 88.024C45.03 88.024 45.031 88.024 45.032 88.024C45.033 88.024 45.034 88.024 45.035 88.024C45.036 88.024 45.037 88.024 45.038 88.024C45.039 88.024 45.04 88.024 45.041 88.024C45.042 88.024 45.043 88.024 45.044 88.024C45.045 88.024 45.046 88.024 45.047 88.024C45.048 88.024 45.049 88.024 45.05 88.024C45.051 88.024 45.052 88.024 45.053 88.024C45.054 88.024 45.055 88.024 45.056 88.024C45.057 88.024 45.058 88.024 45.059 88.024C45.06 88.024 45.061 88.024 45.062 88.024C45.063 88.024 45.064 88.024 45.065 88.024C45.066 88.024 45.067 88.024 45.068 88.024C45.069 88.024 45.07 88.024 45.071 88.024C45.072 88.024 45.073 88.024 45.074 88.024C45.075 88.024 45.076 88.024 45.077 88.024C45.078 88.024 45.079 88.024 45.08 88.024C45.081 88.024 45.082 88.024 45.083 88.024C45.084 88.024 45.085 88.024 45.086 88.024C45.087 88.024 45.088 88.024 45.089 88.024C45.09 88.024 45.091 88.024 45.092 88.024C45.093 88.024 45.094 88.024 45.095 88.024C45.096 88.024 45.097 88.024 45.098 88.024C45.099 88.024 45.1 88.024 45.101 88.024C45.102 88.024 45.103 88.024 45.104 88.024C45.105 88.024 45.106 88.024 45.107 88.024C45.108 88.024 45.109 88.024 45.11 88.024C45.111 88.024 45.112 88.024 45.113 88.024C45.114 88.024 45.115 88.024 45.116 88.024C45.117 88.024 45.118 88.024 45.119 88.024C45.12 88.024 45.121 88.024 45.122 88.024C45.123 88.024 45.124 88.024 45.125 88.024C45.126 88.024 45.127 88.024 45.128 88.024C45.129 88.024 45.13 88.024 45.131 88.024C45.132 88.024 45.133 88.024 45.134 88.024C45.135 88.024 45.136 88.024 45.137 88.024C45.138 88.024 45.139 88.024 45.14 88.024C45.141 88.024 45.142 88.024 45.143 88.024C45.144 88.024 45.145 88.024 45.146 88.024C45.147 88.024 45.148 88.024 45.149 88.024C45.15 88.024 45.151 88.024 45.152 88.024C45.153 88.024 45.154 88.024 45.155 88.024C45.156 88.024 45.157 88.024 45.158 88.024C45.159 88.024 45.16 88.024 45.161 88.024C45.162 88.024 45.163 88.024 45.164 88.024C45.165 88.024 45.166 88.024 45.167 88.024C45.168 88.024 45.169 88.024 45.17 88.024C45.171 88.024 45.172 88.024 45.173 88.024C45.174 88.024 45.175 88.024 45.176 88.024C45.177 88.024 45.178 88.024 45.179 88.024C45.18 88.024 45.181 88.024 45.182 88.024C45.183 88.024 45.184 88.024 45.185 88.024C45.186 88.024 45.187 88.024 45.188 88.024C45.189 88.024 45.19 88.024 45.191 88.024C45.192 88.024 45.193 88.024 45.194 88.024C45.195 88.024 45.196 88.024 45.197 88.024C45.198 88.024 45.199 88.024 45.2 88.024C45.201 88.024 45.202 88.024 45.203 88.024C45.204 88.024 45.205 88.024 45.206 88.024C45.207 88.024 45.208 88.024 45.209 88.024C45.21 88.024 45.211 88.024 45.212 88.024C45.213 88.024 45.214 88.024 45.215 88.024C45.216 88.024 45.217 88.024 45.218 88.024C45.219 88.024 45.22 88.024 45.221 88.024C45.222 88.024 45.223 88.024 45.224 88.024C45.225 88.024 45.226 88.024 45.227 88.024C45.228 88.024 45.229 88.024 45.23 88.024C45.231 88.024 45.232 88.024 45.233 88.024C45.234 88.024 45.235 88.024 45.236 88.024C45.237 88.024 45.238 88.024 45.239 88.024C45.24 88.024 45.241 88.024 45.242 88.024C45.243 88.024 45.244 88.024 45.245 88.024C45.246 88.024 45.247 88.024 45.248 88.024C45.249 88.024 45.25 88.024 45.251 88.024C45.252 88.024 45.253 88.024 45.254 88.024C45.255 88.024 45.256 88.024 45.257 88.024C45.258 88.024 45.259 88.024 45.26 88.024C45.261 88.024 45.262 88.024 45.263 88.024C45.264 88.024 45.265 88.024 45.266 88.024C45.267 88.024 45.268 88.024 45.269 88.024C45.27 88.024 45.271 88.024 45.272 88.024C45.273 88.024 45.274 88.024 45.275 88.024C45.276 88.024 45.277 88.024 45.278 88.024C45.279 88.024 45.28 88.024 45.281 88.024C45.282 88.024 45.283 88.024 45.284 88.024C45.285 88.024 45.286 88.024 45.287 88.024C45.288 88.024 45.289 88.024 45.29 88.024C45.291 88.024 45.292 88.024 45.293 88.024C45.294 88.024 45.295 88.024 45.296 88.024C45.297 88.024 45.298 88.024 45.299 88.024C45.3 88.024 45.301 88.024 45.302 88.024C45.303 88.024 45.304 88.024 45.305 88.024C45.306 88.024 45.307 88.024 45.308 88.024C45.309 88.024 45.31 88.024 45.311 88.024C45.312 88.024 45.313 88.024 45.314 88.024C45.315 88.024 45.316 88.024 45.317 88.024C45.318 88.024 45.319 88.024 45.32 88.024C45.321 88.024 45.322 88.024 45.323 88.024C45.324 88.024 45.325 88.024 45.326 88.024C45.327 88.024 45.328 88.024 45.329 88.024C45.33 88.024 45.331 88.024 45.332 88.024C45.333 88.024 45.334 88.024 45.335 88.024C45.336 88.024 45.337 88.024 45.338 88.024C45.339 88.024 45.34 88.024 45.341 88.024C45.342 88.024 45.343 88.024 45.344 88.024C45.345 88.024 45.346 88.024 45.347 88.024C45.348 88.024 45.349 88.024 45.35 88.024C45.351 88.024 45.352 88.024 45.353 88.024C45.354 88.024 45.355 88.024 45.356 88.024C45.357 88.024 45.358 88.024 45.359 88.024C45.36 88.024 45.361 88.024 45.362 88.024C45.363 88.024 45.364 88.024 45.365 88.024C45.366 88.024 45.367 88.024 45.368 88.024C45.369 88.024 45.37 88.024 45.371 88.024C45.372 88.024 45.373 88.024 45.374 88.024C45.375 88.024 45.376 88.024 45.377 88.024C45.378 88.024 45.379 88.024 45.38 88.024C45.381 88.024 45.382 88.024 45.383 88.024C45.384 88.024 45.385 88.024 45.386 88.024C45.387 88.024 45.388 88.024 45.389 88.024C45.39 88.024 45.391 88.024 45.392 88.024C45.393 88.024 45.394 88.024 45.395 88.024C45.396 88.024 45.397 88.024 45.398 88.024C45.399 88.024 45.4 88.024 45.401 88.024C45.402 88.024 45.403 88.024 45.404 88.024C45.405 88.024 45.406 88.024 45.407 88.024C45.408 88.024 45.409 88.024 45.41 88.024C45.411 88.024 45.412 88.024 45.413 88.024C45.414 88.024 45.415 88.024 45.416 88.024C45.417 88.024 45.418 88.024 45.419 88.024C45.42 88.024 45.421 88.024 45.422 88.024C45.423 88.024 45.424 88.024 45.425 88.024C45.426 88.024 45.427 88.024 45.428 88.024C45.429 88.024 45.43 88.024 45.431 88.024C45.432 88.024 45.433 88.024 45.434 88.024C45.435 88.024 45.436 88.024 45.437 88.024C45.438 88.024 45.439 88.024 45.44 88.024C45.441 88.024 45.442 88.024 45.443 88.024C45.444 88.024 45.445 88.024 45.446 88.024C45.447 88.024 45.448 88.024 45.449 88.024C45.45 88.024 45.451 88.024 45.452 88.024C45.453 88.024 45.454 88.024 45.455 88.024C45.456 88.024 45.457 88.024 45.458 88.024C45.459 88.024 45.46 88.024 45.461 88.024C45.462 88.024 45.463 88.024 45.464 88.024C45.465 88.024 45.466 88.024 45.467 88.024C45.468 88.024 45.469 88.024 45.47 88.024C45.471 88.024 45.472 88.024 45.473 88.024C45.474 88.024 45.475 88.024 45.476 88.024C45.477 88.024 45.478 88.024 45.479 88.024C45.48 88.024 45.481 88.024 45.482 88.024C45.483 88.024 45.484 88.024 45.485 88.024C45.486 88.024 45.487 88.024 45.488 88.024C45.489 88.024 45.49 88.024 45.491 88.024C45.492 88.024 45.493 88.024 45.494 88.024C45.495 88.024 45.496 88.024 45.497 88.024C45.498 88.024 45.499 88.024 45.5 88.024C45.501 88.024 45.502 88.024 45.503 88.024C45.504 88.024 45.505 88.024 45.506 88.024C45.507 88.024 45.508 88.024 45.509 88.024C45.51 88.024 45.511 88.024 45.512 88.024C45.513 88.024 45.514 88.024 45.515 88.024C45.516 88.024 45.517 88.024 45.518 88.024C45.519 88.024 45.52 88.024 45.521 88.024C45.522 88.024 45.523 88.024 45.524 88.024C45.525 88.024 45.526 88.024 45.527 88.024C45.528 88.024 45.529 88.024 45.53 88.024C45.531 88.024 45.532 88.024 45.533 88.024C45.534 88.024 45.535 88.024 45.536 88.024C45.537 88.024 45.538 88.024 45.539 88.024C45.54 88.024 45.541 88.024 45.542 88.024C45.543 88.024 45.544 88.024 45.545 88.024C45.546 88.024 45.547 88.024 45.548 88.024C45.549 88.024 45.55 88.024 45.551 88.024C45.552 88.024 45.553 88.024 45.554 88.024C45.555 88.024 45.556 88.024 45.557 88.024C45.558 88.024 45.559 88.024 45.56 88.024C45.561 88.024 45.562 88.024 45.563 88.024C45.564 88.024 45.565 88.024 45.566 88.024C45.567 88.024 45.568 88.024 45.569 88.024C45.57 88.024 45.571 88.024 45.572 88.024C45.573 88.024 45.574 88.024 45.575 88.024C45.576 88.024 45.577 88.024 45.578 88.024C45.579 88.024 45.58 88.024 45.581 88.024C45.582 88.024 45.583 88.024 45.584 88.024C45.585 88.024 45.586 88.024 45.587 88.024C45.588 88.024 45.589 88.024 45.59 88.024C45.591 88.024 45.592 88.024 45.593 88.024C45.594 88.024 45.595 88.024 45.596 88.024C45.597 88.024 45.598 88.024 45.599 88.024C45.6 88.024 45.601 88.024 45.602 88.024C45.603 88.024 45.604 88.024 45.605 88.024C45.606 88.024 45.607 88.024 45.608 88.024C45.609 88.024 45.61 88.024 45.611 88.024C45.612 88.024 45.613 88.024 45.614 88.024C45.615 88.024 45.616 88.024 45.617 88.024C45.618 88.024 45.619 88.024 45.62 88.024C45.621 88.024 45.622 88.024 45.623 88.024C45.624 88.024 45.625 88.024 45.626 88.024C45.627 88.024 45.628 88.024 45.629 88.024C45.63 88.024 45.631 88.024 45.632 88.024C45.633 88.024 45.634 88.024 45.635 88.024C45.636 88.024 45.637 88.024 45.638 88.024C45.639 88.024 45.64 88.024 45.641 88.024C45.642 88.024 45.643 88.024 45.644 88.024C45.645 88.024 45.646 88.024 45.647 88.024C45.648 88.024 45.649 88.024 45.65 88.024C45.651 88.024 45.652 88.024 45.653 88.024C45.654 88.024 45.655 88.024 45.656 88.024C45.657 88.024 45.658 88.024 45.659 88.024C45.66 88.024 45.661 88.024 45.662 88.024C45.663 88.024 45.664 88.024 45.665 88.024C45.666 88.024 45.667 88.024 45.668 88.024C45.669 88.024 45.67 88.024 45.671 88.024C45.672 88.024 45.673 88.024 45.674 88.024C45.675 88.024 45.676 88.024 45.677 88.024C45.678 88.024 45.679 88.024 45.68 88.024C45.681 88.024 45.682 88.024 45.683 88.024C45.684 88.024 45.685 88.024 45.686 88.024C45.687 88.024 45.688 88.024 45.689 88.024C45.69 88.024 45.691 88.024 45.692 88.024C45.693 88.024 45.694 88.024 45.695 88.024C45.696 88.024 45.697 88.024 45.698 88.024C45.699 88.024 45.7 88.024 45.701 88.024C45.702 88.024 45.703 88.024 45.704 88.024C45.705 88.024 45.706 88.024 45.707 88.024C45.708 88.024 45.709 88.024 45.71 88.024C45.711 88.024 45.712 88.024 45.713 88.024C45.714 88.024 45.715 88.024 45.716 88.024C45.717 88.024 45.718 88.024 45.719 88.024C45.72 88.024 45.721 88.024 45.722 88.024C45.723 88.024 45.724 88.024 45.725 88.024C45.726 88.024 45.727 88.024 45.728 88.024C45.729 88.024 45.73 88.024 45.731 88.024C45.732 88.024 45.733 88.024 45.734 88.024C45.735 88.024 45.736 88.024 45.737 88.024C45.738 88.024 45.739 88.024 45.74 88.024C45.741 88.024 45.742 88.024 45.743 88.024C45.744 88.024 45.745 88.024 45.746 88.024C45.747 88.024 45.748 88.024 45.749 88.024C45.75 88.024 45.751 88.024 45.752 88.024C45.753 88.024 45.754 88.024 45.755 88.024C45.756 88.024 45.757 88.024 45.758 88.024C45.759 88.024 45.76 88.024 45.761 88.024C45.762 88.024 45.763 88.024 45.764 88.024C45.765 88.024 45.766 88.024 45.767 88.024C45.768 88.024 45.769 88.024 45.77 88.024C45.771 88.024 45.772 88.024 45.773 88.024C45.774 88.024 45.775 88.024 45.776 88.024C45.777 88.024 45.778 88.024 45.779 88.024C45.78 88.024 45.781 88.024 45.782 88.024C45.783 88.024 45.784 88.024 45.785 88.024C45.786 88.024 45.787 88.024 45.788 88.024C45.789 88.024 45.79 88.024 45.791 88.024C45.792 88.024 45.793 88.024 45.794 88.024C45.795 88.024 45.796 88.024 45.797 88.024C45.798 88.024 45.799 88.024 45.8 88.024C45.801 88.024 45.802 88.024 45.803 88.024C45.804 88.024 45.805 88.024 45.806 88.024C45.807 88.024 45.808 88.024 45.809 88.024C45.81 88.024 45.811 88.024 45.812 88.024C45.813 88.024 45.814 88.024 45.815 88.024C45.816 88.024 45.817 88.024 45.818 88.024C45.819 88.024 45.82 88.024 45.821 88.024C45.822 88.024 45.823 88.024 45.824 88.024C45.825 88.024 45.826 88.024 45.827 88.024C45.828 88.024 45.829 88.024 45.83 88.024C45.831 88.024 45.832 88.024 45.833 88.024C45.834 88.024 45.835 88.024 45.836 88.024C45.837 88.024 45.838 88.024 45.839 88.024C45.84 88.024 45.841 88.024 45.842 88.024C45.843 88.024 45.844 88.024 45.845 88.024C45.846 88.024 45.847 88.024 45.848 88.024C45.849 88.024 45.85 88.024 45.851 88.024C45.852 88.024 45.853 88.024 45.854 88.024C45.855 88.024 45.856 88.024 45.857 88.024C45.858 88.024 45.859 88.024 45.86 88.024C45.861 88.024 45.862 88.024 45.863 88.024C45.864 88.024 45.865 88.024 45.866 88.024C45.867 88.024 45.868 88.024 45.869 88.024C45.87 88.024 45.871 88.024 45.872 88.024C45.873 88.024 45.874 88.024 45.875 88.024C45.876 88.024 45.877 88.024 45.878 88.024C45.879 88.024 45.88 88.024 45.881 88.024C45.882 88.024 45.883 88.024 45.884 88.024C45.885 88.024 45.886 88.024 45.887 88.024C45.888 88.024 45.889 88.024 45.89 88.024C45.891 88.024 45.892 88.024 45.893 88.024C45.894 88.024 45.895 88.024 45.896 88.024C45.897 88.024 45.898 88.024 45.899 88.024C45.9 88.024 45.901 88.024 45.902 88.024C45.903 88.024 45.904 88.024 45.905 88.024C45.906 88.024 45.907 88.024 45.908 88.024C45.909 88.024 45.91 88.024 45.911 88.024C45.912 88.024 45.913 88.024 45.914 88.024C45.915 88.024 45.916 88.024 45.917 88.024C45.918 88.024 45.919 88.024 45.92 88.024C45.921 88.024 45.922 88.024 45.923 88.024C45.924 88.024 45.925 88.024 45.926 88.024C45.927 88.024 45.928 88.024 45.929 88.024C45.93 88.024 45.931 88.024 45.932 88.024C45.933 88.024 45.934 88.024 45.935 88.024C45.936 88.024 45.937 88.024 45.938 88.024C45.939 88.024 45.94 88.024 45.941 88.024C45.942 88.024 45.943 88.024 45.944 88.024C45.945 88.024 45.946 88.024 45.947 88.024C45.948 88.024 45.949 88.024 45.95 88.024C45.951 88.024 45.952 88.024 45.953 88.024C45.954 88.024 45.955 88.024 45.956 88.024C45.957 88.024 45.958 88.024 45.959 88.024C45.96 88.024 45.961 88.024 45.962 88.024C45.963 88.024 45.964 88.024 45.965 88.024C45.966 88.024 45.967 88.024 45.968 88.024C45.969 88.024 45.97 88.024 45.971 88.024C45.972 88.024 45.973 88.024 45.974 88.024C45.975 88.024 45.976 88.024 45.977 88.024C45.978 88.024 45.979 88.024 45.98 88.024C45.981 88.024 45.982 88.024 45.983 88.024C45.984 88.024 45.985 88.024 45.986 88.024C45.987 88.024 45.988 88.024 45.989 88.024C45.99 88.024 45.991 88.024 45.992 88.024C45.993 88.024 45.994 88.024 45.995 88.024C45.996 88.024 45.997 88.024 45.998 88.024C45.999 88.024 46 88.024 46.001 88.024C46.002 88.024 46.003 88.024 46.004 88.024C46.005 88.024 46.006 88.024 46.007 88.024C46.008 88.024 46.009 88.024 46.01 88.024C46.011 88.024 46.012 88.024 46.013 88.024C46.014 88.024 46.015 88.024 46.016 88.024C46.017 88.024 46.018 88.024 46.019 88.024C46.02 88.024 46.021 88.024 46.022 88.024C46.023 88.024 46.024 88.024 46.025 88.024C46.026 88.024 46.027 88.024 46.028 88.024C46.029 88.024 46.03 88.024 46.031 88.024C46.032 88.024 46.033 88.024 46.034 88.024C46.035 88.024 46.036 88.024 46.037 88.024C46.038 88.024 46.039 88.024 46.04 88.024C46.041 88.024 46.042 88.024 46.043 88.024C46.044 88.024 46.045 88.024 46.046 88.024C46.047 88.024 46.048 88.024 46.049 88.024C46.05 88.024 46.051 88.024 46.052 88.024C46.053 88.024 46.054 88.024 46.055 88.024C46.056 88.024 46.057 88.024 46.058 88.024C46.059 88.024 46.06 88.024 46.061 88.024C46.062 88.024 46.063 88.024 46.064 88.024C46.065 88.024 46.066 88.024 46.067 88.024C46.068 88.024 46.069 88.024 46.07 88.024C46.071 88.024 46.072 88.024 46.073 88.024C46.074 88.024 46.075 88.024 46.076 88.024C46.077 88.024 46.078 88.024 46.079 88.024C46.08 88.024 46.081 88.024 46.082 88.024C46.083 88.024 46.084 88.024 46.085 88.024C46.086 88.024 46.087 88.024 46.088 88.024C46.089 88.024 46.09 88.024 46.091 88.024C46.092 88.024 46.093 88.024 46.094 88.024C46.095 88.024 46.096 88.024 46.097 88.024C46.098 88.024 46.099 88.024 46.1 88.024C46.101 88.024 46.102 88.024 46.103 88.024C46.104 88.024 46.105 88.024 46.106 88.024C46.107 88.024 46.108 88.024 46.109 88.024C46.11 88.024 46.111 88.024 46.112 88.024C46.113 88.024 46.114 88.024 46.115 88.024C46.116 88.024 46.117 88.024 46.118 88.024C46.119 88.024 46.12 88.024 46.121 88.024C46.122 88.024 46.123 88.024 46.124 88.024C46.125 88.024 46.126 88.024 46.127 88.024C46.128 88.024 46.129 88.024 46.13 88.024C46.131 88.024 46.132 88.024 46.133 88.024C46.134 88.024 46.135 88.024 46.136 88.024C46.137 88.024 46.138 88.024 46.139 88.024C46.14 88.024 46.141 88.024 46.142 88.024C46.143 88.024 46.144 88.024 46.145 88.024C46.146 88.024 46.147 88.024 46.148 88.024C46.149 88.024 46.15 88.024 46.151 88.024C46.152 88.024 46.153 88.024 46.154 88.024C46.155 88.024 46.156 88.024 46.157 88.024C46.158 88.024 46.159 88.024 46.16 88.024C46.161 88.024 46.162 88.024 46.163 88.024C46.164 88.024 46.165 88.024 46.166 88.024C46.167 88.024 46.168 88.024 46.169 88.024C46.17 88.024 46.171 88.024 46.172 88.024C46.173 88.024 46.174 88.024 46.175 88.024C46.176 88.024 46.177 88.024 46.178 88.024C46.179 88.024 46.18 88.024 46.181 88.024C46.182 88.024 46.183 88.024 46.184 88.024C46.185 88.024 46.186 88.024 46.187 88.024C46.188 88.024 46.189 88.024 46.19 88.024C46.191 88.024 46.192 88.024 46.193 88.024C46.194 88.024 46.195 88.024 46.196 88.024C46.197 88.024 46.198 88.024 46.199 88.024C46.2 88.024 46.201 88.024 46.202 88.024C46.203 88.024 46.204 88.024 46.205 88.024C46.206 88.024 46.207 88.024 46.208 88.024C46.209 88.024 46.21 88.024 46.211 88.024C46.212 88.024 46.213 88.024 46.214 88.024C46.215 88.024 46.216 88.024 46.217 88.024C46.218 88.024 46.219 88.024 46.22 88.024C46.221 88.024 46.222 88.024 46.223 88.024C46.224 88.024 46.225 88.024 46.226 88.024C46.227 88.024 46.228 88.024 46.229 88.024C46.23 88.024 46.231 88.024 46.232 88.024C46.233 88.024 46.234 88.024 46.235 88.024C46.236 88.024 46.237 88.024 46.238 88.024C46.239 88.024 46.24 88.024 46.241 88.024C46.242 88.024 46.243 88.024 46.244 88.024C46.245 88.024 46.246 88.024 46.247 88.024C46.248 88.024 46.249 88.024 46.25 88.024C46.251 88.024 46.252 88.024 46.253 88.024C46.254 88.024 46.255 88.024 46.256 88.024C46.257 88.024 46.258 88.024 46.259 88.024C46.26 88.024 46.261 88.024 46.262 88.024C46.263 88.024 46.264 88.024 46.265 88.024C46.266 88.024 46.267 88.024 46.268 88.024C46.269 88.024 46.27 88.024 46.271 88.024C46.272 88.024 46.273 88.024 46.274 88.024C46.275 88.024 46.276 88.024 46.277 88.024C46.278 88.024 46.279 88.024 46.28 88.024C46.281 88.024 46.282 88.024 46.283 88.024C46.284 88.024 46.285 88.024 46.286 88.024C46.287 88.024 46.288 88.024 46.289 88.024C46.29 88.024 46.291 88.024 46.292 88.024C46.293 88.024 46.294 88.024 46.295 88.024C46.296 88.024 46.297 88.024 46.298 88.024C46.299 88.024 46.3 88.024 46.301 88.024C46.302 88.024 46.303 88.024 46.304 88.024C46.305 88.024 46.306 88.024 46.307 88.024C46.308 88.024 46.309 88.024 46.31 88.024C46.311 88.024 46.312 88.024 46.313 88.024C46.314 88.024 46.315 88.024 46.316 88.024C46.317 88.024 46.318 88.024 46.319 88.024C46.32 88.024 46.321 88.024 46.322 88.024C46.323 88.024 46.324 88.024 46.325 88.024C46.326 88.024 46.327 88.024 46.328 88.024C46.329 88.024 46.33 88.024 46.331 88.024C46.332 88.024 46.333 88.024 46.334 88.024C46.335 88.024 46.336 88.024 46.337 88.024C46.338 88.024 46.339 88.024 46.34 88.024C46.341 88.024 46.342 88.024 46.343 88.024C46.344 88.024 46.345 88.024 46.346 88.024C46.347 88.024 46.348 88.024 46.349 88.024C46.35 88.024 46.351 88.024 46.352 88.024C46.353 88.024 46.354 88.024 46.355 88.024C46.356 88.024 46.357 88.024 46.358 88.024C46.359 88.024 46.36 88.024 46.361 88.024C46.362 88.024 46.363 88.024 46.364 88.024C46.365 88.024 46.366 88.024 46.367 88.024C46.368 88.024 46.369 88.024 46.37 88.024C46.371 88.024 46.372 88.024 46.373 88.024C46.374 88.024 46.375 88.024 46.376 88.024C46.377 88.024 46.378 88.024 46.379 88.024C46.38 88.024 46.381 88.024 46.382 88.024C46.383 88.024 46.384 88.024 46.385 88.024C46.386 88.024 46.387 88.024 46.388 88.024C46.389 88.024 46.39 88.024 46.391 88.024C46.392 88.024 46.393 88.024 46.394 88.024C46.395 88.024 46.396 88.024 46.397 88.024C46.398 88.024 46.399 88.024 46.4 88.024C46.401 88.024 46.402 88.024 46.403 88.024C46.404 88.024 46.405 88.024 46.406 88.024C46.407 88.024 46.408 88.024 46.409 88.024C46.41 88.024 46.411 88.024 46.412 88.024C46.413 88.024 46.414 88.024 46.415 88.024C46.416 88.024 46.417 88.024 46.418 88.024C46.419 88.024 46.42 88.024 46.421 88.024C46.422 88.024 46.423 88.024 46.424 88.024C46.425 88.024 46.426 88.024 46.427 88.024C46.428 88.024 46.429 88.024 46.43 88.024C46.431 88.024 46.432 88.024 46.433 88.024C46.434 88.024 46.435 88.024 46.436 88.024C46.437 88.024 46.438 88.024 46.439 88.024C46.44 88.024 46.441 88.024 46.442 88.024C46.443 88.024 46.444 88.024 46.445 88.024C46.446 88.024 46.447 88.024 46.448 88.024C46.449 88.024 46.45 88.024 46.451 88.024C46.452 88.024 46.453 88.024 46.454 88.024C46.455 88.024 46.456 88.024 46.457 88.024C46.458 88.024 46.459 88.024 46.46 88.024C46.461 88.024 46.462 88.024 46.463 88.024C46.464 88.024 46.465 88.024 46.466 88.024C46.467 88.024 46.468 88.024 46.469 88.024C46.47 88.024 46.471 88.024 46.472 88.024V84.024ZM45.2188 84.0441C44.6659 83.9651 44.0906 83.928 43.496 83.928V87.928C43.9254 87.928 44.3101 87.9549 44.6532 88.0039L45.2188 84.0441ZM95.8445 51.944L93.9027 51.4652L93.9003 51.4748L93.898 51.4844L95.8445 51.944ZM91.4285 64.712L93.2292 65.5824L93.2348 65.5707L91.4285 64.712ZM84.9005 75.08L83.3483 73.8188L83.3452 73.8226L84.9005 75.08ZM77.2205 82.856L78.4561 84.4286L78.4676 84.4196L78.4789 84.4105L77.2205 82.856ZM69.0605 87.752L69.7958 89.6119L69.8144 89.6046L69.8328 89.5969L69.0605 87.752ZM55.4285 88.232L54.5609 90.034L54.5884 90.0472L54.6162 90.0596L55.4285 88.232ZM50.9165 84.68L49.3548 85.9294L49.3673 85.945L49.3801 85.9604L50.9165 84.68ZM47.8445 78.632L45.9196 79.1749L45.928 79.2047L45.9373 79.2343L47.8445 78.632ZM48.1325 58.376L46.1816 57.9355L46.1816 57.9355L48.1325 58.376ZM51.7805 46.568L49.9194 45.8357L49.9194 45.8357L51.7805 46.568ZM64.8365 26.12L66.2507 27.5342L66.259 27.5259L66.2673 27.5175L64.8365 26.12ZM73.4765 19.592L72.5526 17.8182L72.5526 17.8182L73.4765 19.592ZM90.1805 19.016L89.0844 20.6889L89.1176 20.7106L89.1515 20.731L90.1805 19.016ZM94.5965 23.624L92.8318 24.5652L92.8507 24.6007L92.8711 24.6354L94.5965 23.624ZM96.9005 29.96L98.8656 29.5882L98.8656 29.5882L96.9005 29.96ZM61.4765 69.416L63.3739 68.7835L63.3739 68.7835L61.4765 69.416ZM62.5325 71.432L64.1112 70.2041L64.1112 70.2041L62.5325 71.432ZM64.1645 72.968L63.0176 74.6065L63.1089 74.6704L63.2068 74.7238L64.1645 72.968ZM74.0525 70.568L75.3786 72.0652L75.3786 72.0652L74.0525 70.568ZM79.6205 63.272L81.4014 64.1822L81.4014 64.1822L79.6205 63.272ZM82.9805 54.056L81.0425 53.562L81.0379 53.5799L81.0337 53.5979L82.9805 54.056ZM84.0365 42.632L82.0416 42.7745L82.0466 42.8449L82.0566 42.9148L84.0365 42.632ZM83.4605 40.136L81.5631 40.7685L81.5862 40.8378L81.6143 40.9052L83.4605 40.136ZM82.1165 38.216L80.7023 39.6302L80.7806 39.7085L80.8671 39.7777L82.1165 38.216ZM74.0525 38.888L75.0721 40.6086L75.0721 40.6086L74.0525 38.888ZM69.3485 43.016L67.798 41.7526L67.7926 41.7593L69.3485 43.016ZM65.7965 48.776L67.5961 49.6485L67.6012 49.6381L67.6061 49.6276L65.7965 48.776ZM63.1085 55.304L61.2166 54.6553L61.211 54.6718L61.2056 54.6884L63.1085 55.304ZM61.5725 61.736L59.5951 61.4364L59.5951 61.4364L61.5725 61.736ZM95.5725 37.064C95.5725 42.1651 95.0127 46.9633 93.9027 51.4652L97.7863 52.4228C98.9803 47.5807 99.5725 42.4589 99.5725 37.064H95.5725ZM93.898 51.4844C92.8395 55.9677 91.4121 60.0884 89.6222 63.8533L93.2348 65.5707C95.1569 61.5276 96.6735 57.1363 97.791 52.4036L93.898 51.4844ZM89.6278 63.8417C87.834 67.5529 85.7394 70.8759 83.3483 73.8188L86.4527 76.3412C89.0536 73.1401 91.311 69.5511 93.2292 65.5823L89.6278 63.8417ZM83.3452 73.8226C80.9913 76.7341 78.529 79.2235 75.9621 81.3015L78.4789 84.4105C81.288 82.1365 83.9457 79.4419 86.4558 76.3374L83.3452 73.8226ZM75.9849 81.2834C73.4182 83.3 70.8521 84.8339 68.2882 85.9071L69.8328 89.5969C72.7729 88.3661 75.6468 86.636 78.4561 84.4286L75.9849 81.2834ZM68.3252 85.8921C65.7647 86.9044 63.3907 87.384 61.1885 87.384V91.384C63.9783 91.384 66.8523 90.7756 69.7958 89.6119L68.3252 85.8921ZM61.1885 87.384C59.3235 87.384 57.6847 87.0461 56.2408 86.4044L54.6162 90.0596C56.6283 90.9539 58.8295 91.384 61.1885 91.384V87.384ZM56.2961 86.43C54.8368 85.7274 53.5578 84.7255 52.4529 83.3996L49.3801 85.9604C50.8352 87.7065 52.5642 89.0726 54.5609 90.034L56.2961 86.43ZM52.4782 83.4306C51.3849 82.0639 50.4629 80.282 49.7517 78.0297L45.9373 79.2343C46.7621 81.846 47.8881 84.0961 49.3548 85.9294L52.4782 83.4306ZM49.7694 78.0891C49.1286 75.8172 48.7885 73.0333 48.7885 69.704H44.7885C44.7885 73.2867 45.1524 76.4548 45.9196 79.1749L49.7694 78.0891ZM48.7885 69.704C48.7885 66.2865 49.2157 62.659 50.0834 58.8165L46.1816 57.9355C45.2573 62.029 44.7885 65.9535 44.7885 69.704H48.7885ZM50.0834 58.8165C50.9563 54.951 52.1418 51.1124 53.6416 47.3002L49.9194 45.8357C48.3472 49.8316 47.1008 53.865 46.1816 57.9355L50.0834 58.8165ZM53.6416 47.3002C55.131 43.5147 56.9609 39.9171 59.1318 36.5057L55.7572 34.3582C53.4481 37.9869 51.502 41.8133 49.9194 45.8357L53.6416 47.3002ZM59.1318 36.5057C61.301 33.097 63.6754 30.1096 66.2507 27.5342L63.4223 24.7058C60.6216 27.5064 58.068 30.727 55.7572 34.3582L59.1318 36.5057ZM66.2673 27.5175C68.8235 24.9004 71.5357 22.8578 74.4004 21.3658L72.5526 17.8182C69.2733 19.5262 66.2255 21.8356 63.4057 24.7225L66.2673 27.5175ZM74.4004 21.3658C77.1991 19.9081 80.0835 19.192 83.0765 19.192V15.192C79.4135 15.192 75.8979 16.0758 72.5526 17.8182L74.4004 21.3658ZM83.0765 19.192C85.6817 19.192 87.6383 19.7415 89.0844 20.6889L91.2766 17.3431C89.0107 15.8585 86.2313 15.192 83.0765 15.192V19.192ZM89.1515 20.731C90.7701 21.7022 91.9835 22.9746 92.8318 24.5652L96.3612 22.6828C95.1615 20.4334 93.4309 18.6338 91.2095 17.301L89.1515 20.731ZM92.8711 24.6354C93.83 26.2713 94.5249 28.1623 94.9354 30.3318L98.8656 29.5882C98.3801 27.0217 97.539 24.6887 96.3219 22.6126L92.8711 24.6354ZM94.9354 30.3318C95.3606 32.5794 95.5725 34.8229 95.5725 37.064H99.5725C99.5725 34.5691 99.3364 32.0766 98.8656 29.5882L94.9354 30.3318ZM59.0925 67.208C59.0925 68.1565 59.2652 69.1065 59.5791 70.0485L63.3739 68.7835C63.1758 68.1895 63.0925 67.6675 63.0925 67.208H59.0925ZM59.5791 70.0485C59.899 71.0082 60.3522 71.8864 60.9538 72.6599L64.1112 70.2041C63.8168 69.8256 63.566 69.3598 63.3739 68.7835L59.5791 70.0485ZM60.9538 72.6599C61.5328 73.4043 62.2255 74.052 63.0176 74.6065L65.3114 71.3295C64.8235 70.988 64.4282 70.6117 64.1112 70.2041L60.9538 72.6599ZM63.2068 74.7238C64.1911 75.2607 65.2549 75.544 66.3725 75.544V71.544C65.9541 71.544 65.5459 71.4433 65.1222 71.2122L63.2068 74.7238ZM66.3725 75.544C69.7616 75.544 72.7884 74.3593 75.3786 72.0652L72.7264 69.0708C70.8366 70.7447 68.7434 71.544 66.3725 71.544V75.544ZM75.3786 72.0652C77.8201 69.9027 79.825 67.2665 81.4014 64.1822L77.8396 62.3618C76.472 65.0375 74.7649 67.2653 72.7264 69.0708L75.3786 72.0652ZM81.4014 64.1822C82.9494 61.1536 84.1238 57.9292 84.9273 54.5141L81.0337 53.5979C80.3012 56.7108 79.2357 59.6304 77.8396 62.3618L81.4014 64.1822ZM84.9185 54.55C85.7818 51.1633 86.2285 48.0183 86.2285 45.128H82.2285C82.2285 47.6136 81.8432 50.4207 81.0425 53.562L84.9185 54.55ZM86.2285 45.128C86.2285 44.2504 86.1555 43.3228 86.0164 42.3492L82.0566 42.9148C82.1735 43.7332 82.2285 44.4696 82.2285 45.128H86.2285ZM86.0314 42.4895C85.9532 41.3951 85.7162 40.3496 85.3067 39.3668L81.6143 40.9052C81.8449 41.4584 81.9918 42.0769 82.0416 42.7745L86.0314 42.4895ZM85.3579 39.5035C84.9784 38.365 84.303 37.4039 83.3659 36.6543L80.8671 39.7777C81.21 40.0521 81.4306 40.371 81.5631 40.7685L85.3579 39.5035ZM83.5307 36.8018C82.4889 35.76 81.1272 35.352 79.7165 35.352V39.352C80.3538 39.352 80.5921 39.52 80.7023 39.6302L83.5307 36.8018ZM79.7165 35.352C77.3171 35.352 75.0758 35.9568 73.0329 37.1674L75.0721 40.6086C76.4852 39.7712 78.0199 39.352 79.7165 39.352V35.352ZM73.0329 37.1674C71.0814 38.3238 69.3385 39.8621 67.798 41.7527L70.899 44.2793C72.1745 42.7139 73.5676 41.5001 75.0721 40.6086L73.0329 37.1674ZM67.7926 41.7593C66.3366 43.562 65.0707 45.6213 63.9869 47.9244L67.6061 49.6276C68.5703 47.5787 69.6724 45.798 70.9044 44.2727L67.7926 41.7593ZM63.9969 47.9035C62.9373 50.0888 62.0106 52.3396 61.2166 54.6553L65.0004 55.9526C65.7424 53.7884 66.6077 51.6872 67.5961 49.6485L63.9969 47.9035ZM61.2056 54.6884C60.4706 56.9603 59.9324 59.21 59.5951 61.4364L63.5499 62.0356C63.8526 60.038 64.3384 57.9997 65.0114 55.9196L61.2056 54.6884ZM59.5951 61.4364C59.2654 63.6123 59.0925 65.5415 59.0925 67.208H63.0925C63.0925 65.8025 63.2396 64.0837 63.5499 62.0356L59.5951 61.4364ZM143.38 52.424L145.376 52.5609L145.553 49.9818L143.012 50.4583L143.38 52.424ZM139.54 69.512L141.371 70.3175L141.375 70.3086L139.54 69.512ZM131.86 81.608L130.39 80.2526L130.382 80.2605L130.375 80.2685L131.86 81.608ZM122.26 88.904L121.42 87.0891L121.413 87.0921L121.407 87.0951L122.26 88.904ZM105.748 89.768L104.876 91.5676L104.886 91.5727L104.897 91.5776L105.748 89.768ZM100.18 85.16L98.5628 86.3363L98.583 86.3642L98.6042 86.3913L100.18 85.16ZM96.5323 77.288L98.4553 76.7386L98.4553 76.7386L96.5323 77.288ZM98.7403 44.648L100.606 45.3673L100.606 45.3673L98.7403 44.648ZM107.668 29.288L106.175 27.9578L106.169 27.9644L106.163 27.971L107.668 29.288ZM119.284 20.168L118.423 18.3628L118.412 18.368L119.284 20.168ZM137.524 18.536L136.655 20.3371L136.667 20.3428L136.678 20.3484L137.524 18.536ZM142.228 22.184L140.66 23.4254L140.673 23.4417L140.686 23.4578L142.228 22.184ZM144.82 27.464L142.88 27.9491L142.889 27.9855L142.9 28.0216L144.82 27.464ZM145.684 33.8L146.057 35.7649L147.684 35.4561V33.8H145.684ZM132.532 36.296L130.581 36.735L131.005 38.6214L132.905 38.2609L132.532 36.296ZM130.228 30.824L128.729 32.1472L128.729 32.1472L130.228 30.824ZM121.684 32.648L123.203 33.9496L123.212 33.939L123.221 33.9284L121.684 32.648ZM116.308 41.384L118.122 42.2262L118.122 42.2262L116.308 41.384ZM110.164 65.864L108.165 65.8025L108.164 65.8332V65.864H110.164ZM111.892 74.408L110.228 75.5174L110.252 75.5532L110.277 75.588L111.892 74.408ZM120.436 75.944L119.609 74.1233L119.592 74.1306L119.576 74.1383L120.436 75.944ZM124.18 73.256L125.634 74.6292L125.653 74.6097L125.671 74.5896L124.18 73.256ZM126.868 69.128L125.065 68.2625L125.058 68.2785L125.05 68.2947L126.868 69.128ZM128.116 63.944L130.115 64.0129L130.198 61.6105L127.82 61.966L128.116 63.944ZM117.844 65.48L115.88 65.103L115.348 67.8755L118.14 67.458L117.844 65.48ZM119.668 55.976L119.415 53.9921L117.977 54.1756L117.704 55.599L119.668 55.976ZM128.5 54.824L128.239 52.8411L128.236 52.8415L128.5 54.824ZM136.18 53.672L135.859 51.698L135.851 51.6992L136.18 53.672ZM141.385 52.2871C140.949 58.6389 139.709 64.103 137.706 68.7154L141.375 70.3086C143.596 65.193 144.915 59.2651 145.376 52.5609L141.385 52.2871ZM137.71 68.7065C135.671 73.3403 133.224 77.1772 130.39 80.2526L133.331 82.9634C136.513 79.5108 139.186 75.2837 141.371 70.3175L137.71 68.7065ZM130.375 80.2685C127.584 83.3627 124.596 85.6185 121.42 87.0891L123.1 90.7189C126.836 88.9895 130.248 86.3813 133.345 82.9475L130.375 80.2685ZM121.407 87.0951C118.224 88.5965 115.283 89.304 112.564 89.304V93.304C115.989 93.304 119.512 92.4115 123.113 90.7129L121.407 87.0951ZM112.564 89.304C110.495 89.304 108.514 88.859 106.6 87.9584L104.897 91.5776C107.335 92.725 109.897 93.304 112.564 93.304V89.304ZM106.621 87.9684C104.812 87.0914 103.189 85.7622 101.756 83.9287L98.6042 86.3913C100.372 88.6538 102.461 90.3966 104.876 91.5676L106.621 87.9684ZM101.798 83.9837C100.429 82.1017 99.3023 79.7031 98.4553 76.7386L94.6092 77.8374C95.5542 81.1448 96.8595 83.9943 98.5628 86.3363L101.798 83.9837ZM98.4553 76.7386C97.6228 73.8249 97.1883 70.3378 97.1883 66.248H93.1883C93.1883 70.6062 93.6497 74.4791 94.6092 77.8374L98.4553 76.7386ZM97.1883 66.248C97.1883 58.1779 98.3462 51.2317 100.606 45.3673L96.8741 43.9287C94.3983 50.3523 93.1883 57.8061 93.1883 66.248H97.1883ZM100.606 45.3673C102.907 39.3976 105.772 34.4918 109.173 30.605L106.163 27.971C102.396 32.2762 99.3092 37.6104 96.8741 43.9287L100.606 45.3673ZM109.162 30.6182C112.67 26.6788 116.339 23.8168 120.156 21.968L118.412 18.368C114.037 20.4872 109.962 23.7052 106.175 27.9578L109.162 30.6182ZM120.145 21.9732C124.11 20.0821 127.687 19.192 130.9 19.192V15.192C126.946 15.192 122.778 16.2859 118.423 18.3628L120.145 21.9732ZM130.9 19.192C133.23 19.192 135.127 19.5998 136.655 20.3371L138.394 16.7349C136.209 15.6802 133.69 15.192 130.9 15.192V19.192ZM136.678 20.3484C138.34 21.1238 139.653 22.1528 140.66 23.4254L143.796 20.9426C142.372 19.1432 140.548 17.7402 138.37 16.7236L136.678 20.3484ZM140.686 23.4578C141.693 24.6765 142.433 26.1595 142.88 27.9491L146.761 26.9789C146.184 24.6725 145.195 22.6355 143.77 20.9102L140.686 23.4578ZM142.9 28.0216C143.419 29.8098 143.684 31.7329 143.684 33.8H147.684C147.684 31.3871 147.374 29.0862 146.741 26.9064L142.9 28.0216ZM145.311 31.8351L132.159 34.3311L132.905 38.2609L146.057 35.7649L145.311 31.8351ZM134.483 35.857C133.885 33.1949 133.025 30.9709 131.728 29.5008L128.729 32.1472C129.351 32.8531 130.028 34.2771 130.581 36.735L134.483 35.857ZM131.728 29.5008C130.469 28.0735 128.865 27.192 126.964 27.192V31.192C127.495 31.192 128.068 31.3985 128.729 32.1472L131.728 29.5008ZM126.964 27.192C124.418 27.192 122.142 28.975 120.148 31.3676L123.221 33.9284C125.067 31.7129 126.31 31.192 126.964 31.192V27.192ZM120.166 31.3464C118.094 33.7632 116.211 36.8442 114.494 40.5418L118.122 42.2262C119.734 38.7558 121.434 36.0128 123.203 33.9496L120.166 31.3464ZM114.494 40.5418C112.776 44.2418 111.331 48.2875 110.153 52.6731L114.016 53.7109C115.142 49.5205 116.512 45.6942 118.122 42.2262L114.494 40.5418ZM110.153 52.6731C108.963 57.1005 108.298 61.478 108.165 65.8025L112.163 65.9255C112.286 61.93 112.901 57.8595 114.016 53.7109L110.153 52.6731ZM108.164 65.864C108.164 69.9231 108.734 73.2764 110.228 75.5174L113.556 73.2986C112.746 72.0836 112.164 69.7409 112.164 65.864H108.164ZM110.277 75.588C111.822 77.7015 113.929 78.904 116.5 78.904V74.904C115.36 74.904 114.395 74.4425 113.507 73.228L110.277 75.588ZM116.5 78.904C118.123 78.904 119.727 78.4969 121.296 77.7497L119.576 74.1383C118.457 74.6711 117.438 74.904 116.5 74.904V78.904ZM121.264 77.7647C122.914 77.0149 124.373 75.9648 125.634 74.6292L122.726 71.8828C121.812 72.8512 120.775 73.5931 119.609 74.1233L121.264 77.7647ZM125.671 74.5896C126.897 73.2189 127.902 71.673 128.686 69.9613L125.05 68.2947C124.427 69.655 123.639 70.8611 122.69 71.9224L125.671 74.5896ZM128.671 69.9935C129.564 68.1328 130.042 66.132 130.115 64.0129L126.117 63.8751C126.063 65.468 125.708 66.9232 125.065 68.2625L128.671 69.9935ZM127.82 61.966L117.548 63.502L118.14 67.458L128.412 65.922L127.82 61.966ZM119.808 65.857L121.632 56.353L117.704 55.599L115.88 65.103L119.808 65.857ZM119.922 57.9599C122.933 57.5754 125.881 57.191 128.765 56.8065L128.236 52.8415C125.36 53.225 122.419 53.6085 119.415 53.9921L119.922 57.9599ZM128.761 56.8069C131.218 56.4836 133.801 56.0961 136.509 55.6448L135.851 51.6992C133.184 52.1439 130.646 52.5244 128.239 52.8411L128.761 56.8069ZM136.502 55.646C139.264 55.1962 141.681 54.7775 143.749 54.3897L143.012 50.4583C140.984 50.8385 138.6 51.2518 135.859 51.698L136.502 55.646ZM191.095 51.944L189.153 51.4652L189.15 51.4748L189.148 51.4844L191.095 51.944ZM186.679 64.712L188.479 65.5824L188.485 65.5707L186.679 64.712ZM180.151 75.08L178.598 73.8188L178.595 73.8226L180.151 75.08ZM172.471 82.856L173.706 84.4286L173.718 84.4196L173.729 84.4105L172.471 82.856ZM164.311 87.752L165.046 89.6119L165.064 89.6046L165.083 89.5969L164.311 87.752ZM150.679 88.232L149.811 90.034L149.838 90.0472L149.866 90.0596L150.679 88.232ZM146.167 84.68L144.605 85.9294L144.617 85.945L144.63 85.9604L146.167 84.68ZM143.095 78.632L141.17 79.1749L141.178 79.2047L141.187 79.2343L143.095 78.632ZM143.383 58.376L141.432 57.9355L141.432 57.9355L143.383 58.376ZM147.031 46.568L145.169 45.8357L145.169 45.8357L147.031 46.568ZM160.087 26.12L161.501 27.5342L161.509 27.5259L161.517 27.5175L160.087 26.12ZM168.727 19.592L167.803 17.8182L167.803 17.8182L168.727 19.592ZM185.431 19.016L184.334 20.6889L184.368 20.7106L184.402 20.731L185.431 19.016ZM189.847 23.624L188.082 24.5652L188.101 24.6007L188.121 24.6354L189.847 23.624ZM192.151 29.96L194.116 29.5882L194.116 29.5882L192.151 29.96ZM156.727 69.416L158.624 68.7835L158.624 68.7835L156.727 69.416ZM157.783 71.432L159.361 70.2041L159.361 70.2041L157.783 71.432ZM159.415 72.968L158.268 74.6065L158.359 74.6704L158.457 74.7238L159.415 72.968ZM169.303 70.568L170.629 72.0652L170.629 72.0652L169.303 70.568ZM174.871 63.272L176.651 64.1822L176.651 64.1822L174.871 63.272ZM178.231 54.056L176.292 53.562L176.288 53.5799L176.284 53.5979L178.231 54.056ZM179.287 42.632L177.292 42.7745L177.297 42.8449L177.307 42.9148L179.287 42.632ZM178.711 40.136L176.813 40.7685L176.836 40.8378L176.864 40.9052L178.711 40.136ZM177.367 38.216L175.952 39.6302L176.031 39.7085L176.117 39.7777L177.367 38.216ZM169.303 38.888L170.322 40.6086L170.322 40.6086L169.303 38.888ZM164.599 43.016L163.048 41.7526L163.043 41.7593L164.599 43.016ZM161.047 48.776L162.846 49.6485L162.851 49.6381L162.856 49.6276L161.047 48.776ZM158.359 55.304L156.467 54.6553L156.461 54.6718L156.456 54.6884L158.359 55.304ZM156.823 61.736L154.845 61.4364L154.845 61.4364L156.823 61.736ZM190.823 37.064C190.823 42.1651 190.263 46.9633 189.153 51.4652L193.036 52.4228C194.23 47.5807 194.823 42.4589 194.823 37.064H190.823ZM189.148 51.4844C188.089 55.9677 186.662 60.0884 184.872 63.8533L188.485 65.5707C190.407 61.5276 191.924 57.1363 193.041 52.4036L189.148 51.4844ZM184.878 63.8417C183.084 67.5529 180.989 70.8759 178.598 73.8188L181.703 76.3412C184.304 73.1401 186.561 69.5511 188.479 65.5823L184.878 63.8417ZM178.595 73.8226C176.241 76.7341 173.779 79.2235 171.212 81.3015L173.729 84.4105C176.538 82.1365 179.196 79.4419 181.706 76.3374L178.595 73.8226ZM171.235 81.2834C168.668 83.3 166.102 84.8339 163.538 85.9071L165.083 89.5969C168.023 88.3661 170.897 86.636 173.706 84.4286L171.235 81.2834ZM163.575 85.8921C161.015 86.9044 158.641 87.384 156.439 87.384V91.384C159.228 91.384 162.102 90.7756 165.046 89.6119L163.575 85.8921ZM156.439 87.384C154.574 87.384 152.935 87.0461 151.491 86.4044L149.866 90.0596C151.878 90.9539 154.079 91.384 156.439 91.384V87.384ZM151.546 86.43C150.087 85.7274 148.808 84.7255 147.703 83.3996L144.63 85.9604C146.085 87.7065 147.814 89.0726 149.811 90.034L151.546 86.43ZM147.728 83.4306C146.635 82.0639 145.713 80.282 145.002 78.0297L141.187 79.2343C142.012 81.846 143.138 84.0961 144.605 85.9294L147.728 83.4306ZM145.019 78.0891C144.379 75.8172 144.039 73.0333 144.039 69.704H140.039C140.039 73.2867 140.402 76.4548 141.17 79.1749L145.019 78.0891ZM144.039 69.704C144.039 66.2865 144.466 62.659 145.333 58.8165L141.432 57.9355C140.507 62.029 140.039 65.9535 140.039 69.704H144.039ZM145.333 58.8165C146.206 54.951 147.392 51.1124 148.892 47.3002L145.169 45.8357C143.597 49.8316 142.351 53.865 141.432 57.9355L145.333 58.8165ZM148.892 47.3002C150.381 43.5147 152.211 39.9171 154.382 36.5057L151.007 34.3582C148.698 37.9869 146.752 41.8133 145.169 45.8357L148.892 47.3002ZM154.382 36.5057C156.551 33.097 158.925 30.1096 161.501 27.5342L158.672 24.7058C155.872 27.5064 153.318 30.727 151.007 34.3582L154.382 36.5057ZM161.517 27.5175C164.074 24.9004 166.786 22.8578 169.65 21.3658L167.803 17.8182C164.523 19.5262 161.475 21.8356 158.656 24.7225L161.517 27.5175ZM169.65 21.3658C172.449 19.9081 175.333 19.192 178.327 19.192V15.192C174.664 15.192 171.148 16.0758 167.803 17.8182L169.65 21.3658ZM178.327 19.192C180.932 19.192 182.888 19.7415 184.334 20.6889L186.527 17.3431C184.261 15.8585 181.481 15.192 178.327 15.192V19.192ZM184.402 20.731C186.02 21.7022 187.233 22.9746 188.082 24.5652L191.611 22.6828C190.412 20.4334 188.681 18.6338 186.459 17.301L184.402 20.731ZM188.121 24.6354C189.08 26.2713 189.775 28.1623 190.185 30.3318L194.116 29.5882C193.63 27.0217 192.789 24.6887 191.572 22.6126L188.121 24.6354ZM190.185 30.3318C190.611 32.5794 190.823 34.8229 190.823 37.064H194.823C194.823 34.5691 194.586 32.0766 194.116 29.5882L190.185 30.3318ZM154.343 67.208C154.343 68.1565 154.515 69.1065 154.829 70.0485L158.624 68.7835C158.426 68.1895 158.343 67.6675 158.343 67.208H154.343ZM154.829 70.0485C155.149 71.0082 155.602 71.8864 156.204 72.6599L159.361 70.2041C159.067 69.8256 158.816 69.3598 158.624 68.7835L154.829 70.0485ZM156.204 72.6599C156.783 73.4043 157.475 74.052 158.268 74.6065L160.561 71.3295C160.074 70.988 159.678 70.6117 159.361 70.2041L156.204 72.6599ZM158.457 74.7238C159.441 75.2607 160.505 75.544 161.623 75.544V71.544C161.204 71.544 160.796 71.4433 160.372 71.2122L158.457 74.7238ZM161.623 75.544C165.012 75.544 168.038 74.3593 170.629 72.0652L167.976 69.0708C166.087 70.7447 163.993 71.544 161.623 71.544V75.544ZM170.629 72.0652C173.07 69.9027 175.075 67.2665 176.651 64.1822L173.09 62.3618C171.722 65.0375 170.015 67.2653 167.976 69.0708L170.629 72.0652ZM176.651 64.1822C178.199 61.1536 179.374 57.9292 180.177 54.5141L176.284 53.5979C175.551 56.7108 174.486 59.6304 173.09 62.3618L176.651 64.1822ZM180.169 54.55C181.032 51.1633 181.479 48.0183 181.479 45.128H177.479C177.479 47.6136 177.093 50.4207 176.292 53.562L180.169 54.55ZM181.479 45.128C181.479 44.2504 181.405 43.3228 181.266 42.3492L177.307 42.9148C177.424 43.7332 177.479 44.4696 177.479 45.128H181.479ZM181.281 42.4895C181.203 41.3951 180.966 40.3496 180.557 39.3668L176.864 40.9052C177.095 41.4584 177.242 42.0769 177.292 42.7745L181.281 42.4895ZM180.608 39.5035C180.228 38.365 179.553 37.4039 178.616 36.6543L176.117 39.7777C176.46 40.0521 176.681 40.371 176.813 40.7685L180.608 39.5035ZM178.781 36.8018C177.739 35.76 176.377 35.352 174.967 35.352V39.352C175.604 39.352 175.842 39.52 175.952 39.6302L178.781 36.8018ZM174.967 35.352C172.567 35.352 170.326 35.9568 168.283 37.1674L170.322 40.6086C171.735 39.7712 173.27 39.352 174.967 39.352V35.352ZM168.283 37.1674C166.331 38.3238 164.588 39.8621 163.048 41.7527L166.149 44.2793C167.425 42.7139 168.818 41.5001 170.322 40.6086L168.283 37.1674ZM163.043 41.7593C161.587 43.562 160.321 45.6213 159.237 47.9244L162.856 49.6276C163.82 47.5787 164.922 45.798 166.154 44.2727L163.043 41.7593ZM159.247 47.9035C158.187 50.0888 157.261 52.3396 156.467 54.6553L160.25 55.9526C160.992 53.7884 161.858 51.6872 162.846 49.6485L159.247 47.9035ZM156.456 54.6884C155.721 56.9603 155.182 59.21 154.845 61.4364L158.8 62.0356C159.103 60.038 159.588 57.9997 160.261 55.9196L156.456 54.6884ZM154.845 61.4364C154.515 63.6123 154.343 65.5415 154.343 67.208H158.343C158.343 65.8025 158.49 64.0837 158.8 62.0356L154.845 61.4364Z" fill="#C4FFFF"/>
</g>
<defs>
<filter id="filter0_d_405_5" x="0.151978" y="0.192017" width="214.671" height="114.112" filterUnits="userSpaceOnUse" color-interpolation-filters="sRGB">
<feFlood flood-opacity="0" result="BackgroundImageFix"/>
<feColorMatrix in="SourceAlpha" type="matrix" values="0 0 0 0 0 0 0 0 0 0 0 0 0 0 0 0 0 0 127 0" result="hardAlpha"/>
<feOffset dx="2" dy="3"/>
<feGaussianBlur stdDeviation="10"/>
<feComposite in2="hardAlpha" operator="out"/>
<feColorMatrix type="matrix" values="0 0 0 0 0 0 0 0 0 0 0 0 0 0 0 0 0 0 0.25 0"/>
<feBlend mode="normal" in2="BackgroundImageFix" result="effect1_dropShadow_405_5"/>
<feBlend mode="normal" in="SourceGraphic" in2="effect1_dropShadow_405_5" result="shape"/>
</filter>
<linearGradient id="paint0_linear_405_5" x1="102" y1="4" x2="102" y2="106" gradientUnits="userSpaceOnUse">
<stop stop-color="#C4FFFF" stop-opacity="0.72"/>
<stop offset="1" stop-color="#2E8072" stop-opacity="0.6"/>
<stop offset="1" stop-color="#2E8072" stop-opacity="0.17"/>
</linearGradient>
</defs>
</svg>
